<svg width="101" height="77" fill="none" xmlns="http://www.w3.org/2000/svg"><g clip-path="url(#clip0)"><path d="M96.955 18.148s-.92-7.008-3.785-10.078c-3.632-4.041-7.674-4.066-9.541-4.297C70.303 2.75 50.326 2.75 50.326 2.75h-.051s-19.978 0-33.304 1.023c-1.867.23-5.908.256-9.54 4.297-2.84 3.096-3.786 10.078-3.786 10.078s-.896 8.21-.896 16.422v7.699c0 8.21.947 16.42.947 16.42s.921 7.01 3.785 10.079c3.632 4.04 8.364 3.913 10.487 4.349 7.622.767 32.356 1.022 32.356 1.022s20.003-.025 33.329-1.048c1.867-.23 5.908-.256 9.54-4.298 2.84-3.07 3.786-10.078 3.786-10.078s.946-8.21.946-16.421v-7.7c-.023-8.235-.97-16.446-.97-16.446z" fill="#38ADA9"/><path d="M50.314 76.889h-.016c-1.015-.011-24.946-.266-32.604-1.037l-.14-.014-.137-.028c-.271-.056-.668-.107-1.126-.167-2.503-.328-7.159-.938-10.839-5.02-3.354-3.615-4.377-10.77-4.483-11.575l-.005-.043c-.039-.342-.965-8.463-.965-16.736v-7.7c0-8.265.875-16.377.912-16.72l.009-.07c.108-.802 1.155-7.928 4.474-11.557 3.996-4.44 8.531-4.9 10.712-5.121.192-.02.37-.037.529-.058l.126-.013C30.038.01 50.073-.001 50.275-.001h.051c.201 0 20.236.013 33.514 1.03l.126.014c.159.02.337.038.529.058 2.179.22 6.71.682 10.704 5.112 3.354 3.616 4.377 10.77 4.483 11.577l.005.043c.039.342.965 8.459.99 16.753v7.708c0 8.273-.926 16.395-.965 16.736l-.007.053c-.108.805-1.156 7.953-4.478 11.562-3.994 4.435-8.527 4.896-10.707 5.117-.193.02-.371.037-.53.057l-.126.013c-13.276 1.02-33.334 1.057-33.535 1.058l-.015-.001zM18.37 70.392c7.477.729 31.216.989 31.968.997.657-.001 20.135-.05 33.047-1.036.178-.021.371-.041.58-.062 1.836-.186 4.608-.468 7.186-3.335l.026-.03c1.825-1.973 2.853-6.927 3.075-8.551.059-.514.926-8.358.926-16.08v-7.7c-.023-7.76-.896-15.626-.951-16.108-.32-2.382-1.434-6.79-3.066-8.54l-.035-.037c-2.577-2.868-5.351-3.15-7.186-3.336-.194-.02-.387-.04-.58-.062C70.294 5.514 50.526 5.5 50.327 5.5h-.051c-.198 0-19.967.013-33.033 1.01-.193.023-.386.044-.58.063-1.835.187-4.607.468-7.186 3.336l-.019.02c-1.828 1.994-2.855 6.925-3.082 8.553-.062.59-.875 8.399-.875 16.089v7.699c0 7.749.871 15.598.926 16.083.32 2.38 1.433 6.789 3.066 8.539l.035.039c2.322 2.584 5.303 2.975 7.479 3.259.481.06.939.12 1.363.2z" fill="#fff"/><path d="M38.433 20.578v35.708L68.18 38.432 38.433 20.578z" fill="#fff"/></g><defs><clipPath id="clip0"><path fill="#fff" d="M0 0h100.678v76.891H0z"/></clipPath></defs></svg>