<svg version="1.1" id="monster" xmlns="http://www.w3.org/2000/svg" x="0" y="0" viewBox="0 0 1000 1000" xml:space="preserve"><style>.st4{fill:#66a0d7}.st5{fill:#1e1f1d}.st9{fill:#fff}.st41{fill:#566eb3}.st42{fill:#4081c2}</style><path class="st41" d="M617.857 938.125l-34.763 9.402 27.97-10.818s.742-11.719-22.705-6.714c-10.44 2.214-26.274 7.567-40.635 13.966l54.963-213.06h-34L530.55 952.668c-9.59 5.625-16.27 11.369-16.27 16.14h120.2s18.15-40.06-16.622-30.682zM384.162 938.125l34.796 9.402-27.981-10.818s-.755-11.719 22.684-6.714c10.438 2.214 26.283 7.567 40.633 13.966l-54.95-213.06h34.009l38.124 221.766c9.605 5.625 16.263 11.369 16.263 16.14h-120.2s-18.131-40.06 16.622-30.682z"/><g id="XMLID_283_"><path class="st42" d="M212.761 247.664l-.02.02s0-.02.02-.02z"/><path class="st4" d="M789.248 247.664c.02 0 .02.02.02.02l-.02-.02z"/><path class="st4" d="M271.177 141.618C341.015 44.734 500.995 31.191 500.995 31.191s159.98 13.543 229.837 110.427c0 0-42.83-12.888-56.314-9.815 0 0 71.721 32.678 114.73 115.86-.892-.892-29.664-29.545-62.937-36.187 0 0 58.575 41.62 90.123 151.453-.992-1.23-32.58-41.105-65.555-43.326 0 0 65.575 146.476 65.575 279.43 0 60.656-26.75 117.545-73.586 161.506l-.02.02c-52.884 37.933-122.8 63.115-204.793 67.537C344.306 838.566 204.79 726.711 197.374 589c-2.796-51.516 3.787-105.41 13.147-152.822.02-.04.02-.08.02-.119 18.56-67.26 40.59-116.455 40.59-116.455-32.976 2.22-64.604 42.097-65.595 43.326 31.568-109.832 90.142-151.453 90.142-151.453-33.273 6.642-62.025 35.295-62.917 36.188 42.99-83.183 114.75-115.861 114.75-115.861-13.523-3.073-56.334 9.815-56.334 9.815z"/><path class="st42" d="M538.055 828.096c81.993-4.422 151.91-29.604 204.793-67.537-55.818 52.348-140.19 86.315-241.853 86.315-187.007 0-315.479-114.908-315.479-247.842 0-55.858 11.58-114.096 25.005-162.855-9.36 47.411-15.943 101.306-13.147 152.822 7.416 137.712 146.932 249.567 340.681 239.097z"/></g><path class="st4" d="M45.621 639.54c8.663-7.8 21.697-17.882 35.257-22.982 22.036-61.146 55.947-118.456 105.36-161.403 21.272-18.497 46.543-36.61 73.72-45.404 18.98-6.135 27.002 23.67 8.138 29.758-1.346.426-2.677.965-3.999 1.49-.962.431-1.943.845-2.895 1.293a174.371 174.371 0 00-8.165 4.013c-16.333 8.444-30.624 18.506-43.682 29.549-44.463 37.653-75.595 88.042-96.235 142.086.541.356 1.069.723 1.604 1.112 13.705 10.416 14.61 28.654 17.79 44.031 3.104 14.784 40.582 49.528 14.838 60.198-26.88 11.114-31.516-38.899-49.068-37.97-13.51.706-7.384 28.313-6.347 35.779 2.53 17.865 9.99 38.78 3.313 56.419-9.402 24.757-39.569 9.51-52.711-2.764-15.859-14.817-23.01-38.715-24.868-59.786-2.481-28.294 6.623-56.225 27.95-75.418zM954.378 620.31c-8.663-7.81-21.698-17.86-35.256-22.981-22.038-61.136-55.95-118.468-105.373-161.404-21.261-18.47-46.531-36.6-73.707-45.387-18.991-6.153-26.993 23.652-8.15 29.75 1.366.432 2.688.955 3.996 1.495a97.85 97.85 0 012.896 1.268c2.765 1.264 5.49 2.63 8.169 4.02 16.342 8.453 30.632 18.525 43.69 29.563 44.447 37.63 75.595 88.041 96.228 142.076-.522.366-1.072.722-1.597 1.127-13.702 10.401-14.6 28.64-17.789 44.033-3.104 14.767-40.6 49.51-14.836 60.18 26.868 11.113 31.487-38.898 49.068-37.97 13.498.724 7.393 28.313 6.33 35.783-2.514 17.872-9.986 38.776-3.297 56.404 9.402 24.758 39.566 9.526 52.709-2.737 15.87-14.842 23.01-38.726 24.867-59.802 2.494-28.277-6.639-56.226-27.948-75.418z"/><g id="XMLID_8_"><path d="M656.9 671.707c-31.957 45.13-81.392 80.367-157.889 80.367-76.548 0-125.983-35.237-157.94-80.367l.026-.025s4.203-6.305 12.993-15.146c29.958 39.927 75.395 70.474 144.255 70.474 69.27 0 114.81-30.88 144.741-71.192l.052-.025c9.302 9.25 13.736 15.889 13.736 15.889l.025.025z" fill="#9c1c1b"/><path fill="#c8c7c7" d="M670.046 386.503v16.017h-347.4v-16.017H499.01z"/><path class="st5" d="M643.138 655.793c-21.117-20.963-67.45-55.304-144.127-55.304-77.624 0-124.137 35.135-144.921 56.047-8.79 8.841-12.993 15.146-12.993 15.146l-.026.025c-56.892-80.392-58.276-192.152-58.276-192.152v-93.052h39.85V560.05l70.732-136.618 32.264 46.103 34.366-40.85 39.004 44.54 33.674-44.54 34.392 40.85 32.29-46.103 70.68 136.618V386.503H715.2v93.052s-1.41 111.76-58.302 192.152l-.025-.025s-4.434-6.638-13.736-15.89z"/><path class="st9" d="M532.685 428.685l-33.674 44.54-39.004-44.54-34.366 40.85-32.264-46.103-70.731 136.618V402.52h347.4v157.53l-70.68-136.618-32.29 46.103z"/><path d="M499.011 600.49c76.676 0 123.01 34.34 144.127 55.302l-.052.026c-29.932 40.312-75.471 71.192-144.741 71.192-68.86 0-114.297-30.547-144.255-70.474 20.784-20.912 67.297-56.047 144.921-56.047z" fill="#e43333"/></g><g id="XMLID_9_"><path class="st5" d="M243.888 238.313c-.565 3.872-.349 7.577.216 11.066.665 3.656 1.462 6.397 2.21 9.421 1.545 5.966 3.207 11.848 4.902 17.713 6.895 23.429 14.373 46.459 22.166 69.538-.034-.548-.781-12.877-3.905-33.215-1.562-10.402-3.772-22.897-6.613-37.02l-4.603-22.25c-.83-4.07-1.512-7.427-1.396-10.7.083-3.257.898-6.015 2.476-8.142 3.29-4.703 11.681-7.128 18.81-7.444h.149c55.464-2.741 91.222-12.827 91.222-12.827H278.383c-3.606-.05-6.995.298-10.501 1.03-3.456.698-6.98 1.827-10.369 3.622-3.39 1.778-6.68 4.387-9.155 7.793-2.476 3.423-3.955 7.46-4.47 11.415zm446.273 166.858c11.614-10.452 20.172-23.13 27.25-36.223 7.062-13.16 12.628-26.835 17.314-40.71-.383.4-6.148 7.86-14.872 20.123-4.553 6.297-9.953 13.824-16.283 21.95-6.331 8.108-13.56 16.898-22.382 24.807-8.79 7.91-17.995 13.36-27.284 16.367-4.685 1.529-9.188 2.376-13.79 2.99-4.504.699-8.691 1.214-12.58 1.612-7.709.782-14.057 1.08-18.493 1.213l-6.879.167a129.351 129.351 0 0022.216 5.001c3.755.515 7.51.864 11.265 1.08 1.894.083 3.772.133 5.666.183l2.842.033c1.014 0 1.993-.05 3.007-.083 7.976-.349 15.985-2.276 23.313-5.583 7.294-3.24 13.89-7.793 19.69-12.927zm-341.526 35.076c-86.818 0-112.257-157.686-121.246-199.408-8.99-41.707 34.428-45.096 34.428-45.096H734.84s43.417 3.39 34.445 45.096c-8.99 41.722-34.445 199.408-121.263 199.408-86.82 0-130.237-66.364-130.237-108.286v-73.377s2.99-17.745-19.44-17.745c-22.465 0-19.458 17.745-19.458 17.745v73.377c0 41.922-43.434 108.286-130.253 108.286z"/><path class="st9" d="M717.41 368.948c-7.077 13.093-15.635 25.771-27.25 36.223-5.799 5.134-12.395 9.687-19.69 12.927-7.327 3.307-15.336 5.234-23.312 5.583-1.013.033-1.993.083-3.007.083l-2.841-.033c-1.895-.05-3.772-.1-5.666-.183-3.756-.216-7.511-.565-11.266-1.08a129.351 129.351 0 01-22.216-5.001l6.879-.167a259.822 259.822 0 0018.494-1.213c3.888-.399 8.075-.913 12.578-1.611 4.603-.615 9.106-1.462 13.791-2.991 9.289-3.008 18.494-8.458 27.284-16.367 8.823-7.909 16.05-16.7 22.382-24.808 6.33-8.125 11.73-15.652 16.284-21.95 8.723-12.262 14.488-19.722 14.87-20.121-4.685 13.874-10.251 27.55-17.313 40.709zM244.104 249.38c-.565-3.49-.78-7.195-.216-11.067.515-3.955 1.994-7.992 4.47-11.415 2.475-3.406 5.765-6.015 9.155-7.793 3.39-1.794 6.913-2.924 10.369-3.623 3.506-.73 6.895-1.08 10.5-1.03h91.14S333.764 224.54 278.3 227.28h-.15c-7.128.316-15.52 2.742-18.809 7.444-1.578 2.127-2.393 4.885-2.476 8.142-.116 3.273.565 6.63 1.396 10.7l4.603 22.25c2.841 14.123 5.051 26.618 6.613 37.02 3.124 20.338 3.871 32.667 3.905 33.215-7.793-23.08-15.27-46.11-22.166-69.538-1.695-5.865-3.357-11.747-4.902-17.713-.748-3.024-1.545-5.765-2.21-9.42z"/></g></svg>