<svg version="1.1" id="monster" xmlns="http://www.w3.org/2000/svg" x="0" y="0" viewBox="0 0 1000 1000" xml:space="preserve"><style>.st5{fill:#1e1f1d}.st9{fill:#fff}.st50{fill:#eeeded}.st51{fill:#b1b1b0}</style><path d="M382.356 746.514c-10.362 82.746-62.09 170.684-62.09 170.684s67.238-12.93 72.406 20.688c5.18 33.619-33.608 38.81-33.608 38.81H219.399c-33.619 5.17-33.619-20.71-33.619-20.71V407.703c0-90.528-2.601-139.676 33.62-165.545 36.22-25.86 408.638-116.387 408.638-116.387s75.008-20.103 62.065-103.165c0 0 88.353 121.283 1.525 253.17 0 0 52.796 47.864 52.796 268.338v370.492s69.839 2.592 69.839 33.622c0 31.039-43.979 29.144-82.756 29.144H599.598s-28.449-.686-33.628-52.404c-5.171-51.74-12.93-201.755-12.93-201.755l-170.684 23.3z" fill="#5dc2db"/><g id="XMLID_16_"><path class="st5" d="M626.88 467.504v67.624s-1.024 81.201-42.388 139.625c0 0-3.222-4.824-9.982-11.547-15.365-15.253-49.019-40.21-104.78-40.21-56.393 0-90.16 25.534-105.282 40.75-6.407 6.425-9.461 11.007-9.461 11.007l-.019.019c-41.327-58.424-42.332-139.644-42.332-139.644v-67.624h28.942v126.14l51.42-99.303 23.449 33.523 24.956-29.705 28.327 32.387 24.51-32.387 24.975 29.705 23.466-33.523 51.365 99.304V467.504h32.835z"/><path class="st9" d="M594.046 479.144v114.5l-51.365-99.303-23.466 33.523-24.975-29.705-24.51 32.387-28.327-32.387-24.956 29.705-23.448-33.523-51.421 99.304V479.144z"/><path fill="#c8c7c7" d="M594.046 467.504v11.64H341.578v-11.64H469.73z"/><path d="M574.51 663.206c6.76 6.723 9.982 11.547 9.982 11.547-23.206 32.816-59.132 58.424-114.762 58.424-55.611 0-91.537-25.608-114.762-58.405l.019-.019s3.054-4.581 9.461-11.007c21.753 29.017 54.792 51.217 104.817 51.217 50.36 0 83.454-22.461 105.207-51.738l.038-.019z" fill="#9c1c1b"/><path d="M574.51 663.206l-.038.019c-21.753 29.277-54.848 51.738-105.207 51.738-50.025 0-83.064-22.2-104.817-51.217 15.123-15.216 48.888-40.75 105.282-40.75 55.761 0 89.415 24.957 104.78 40.21z" fill="#e43333"/></g><g id="XMLID_17_"><path class="st5" d="M382.205 409.572c13.17-4.71 28.854-8.745 47.406-11.294 13.453-1.841 28.429-2.904 45.033-2.904s31.545 1.063 44.963 2.904c18.552 2.549 34.236 6.585 47.406 11.293 43.193 15.472 59.266 38.378 60.966 40.998-2.62-3.08-33.457-36.006-153.335-36.006-119.948 0-150.785 32.926-153.44 36.006 1.7-2.62 17.772-25.526 61-40.998z"/><path class="st50" d="M604.718 317.982c0 31.51-11.223 60.399-29.88 82.915l-37.175-13.418c26.093-19.33 43.016-50.38 43.016-85.323 0-58.593-47.477-106.105-106.035-106.105l.071-8.179c71.764.036 130.003 58.31 130.003 130.11z"/><path class="st51" d="M537.663 387.48l37.174 13.418a129.435 129.435 0 01-7.824 8.638v.036c-13.17-4.71-28.854-8.745-47.406-11.294a105.47 105.47 0 0018.056-10.799z"/><path class="st5" d="M580.679 302.156c0 34.944-16.923 65.993-43.016 85.323a105.47 105.47 0 01-18.056 10.799c-13.418-1.841-28.358-2.903-44.963-2.903s-31.58 1.062-45.033 2.903c-6.409-2.974-12.463-6.62-18.092-10.799-26.093-19.33-43.016-50.38-43.016-85.323 0-58.593 47.548-106.105 106.141-106.105 58.558 0 106.035 47.512 106.035 106.105zm-49.46-17.1c0-31.262-25.349-56.61-56.575-56.61-31.297 0-56.61 25.348-56.61 56.61s25.313 56.61 56.61 56.61c31.226 0 56.576-25.348 56.576-56.61z"/><path class="st9" d="M474.644 228.445c31.226 0 56.576 25.35 56.576 56.611s-25.35 56.61-56.576 56.61c-31.297 0-56.61-25.348-56.61-56.61s25.313-56.61 56.61-56.61zm25.137 49.53c0-13.878-11.294-25.172-25.137-25.172-13.949 0-25.172 11.294-25.172 25.172 0 13.914 11.223 25.172 25.172 25.172 13.843 0 25.137-11.258 25.137-25.172z"/><path class="st5" d="M474.644 252.803c13.843 0 25.137 11.294 25.137 25.172 0 13.914-11.294 25.172-25.137 25.172-13.949 0-25.172-11.258-25.172-25.172 0-13.878 11.223-25.172 25.172-25.172z"/><path class="st50" d="M474.715 187.872l-.07 8.179c-58.594 0-106.142 47.512-106.142 106.105 0 34.944 16.924 65.993 43.016 85.324l-37.21 13.418c-18.622-22.482-29.81-51.407-29.81-82.916 0-71.835 58.275-130.11 130.145-130.11h.071z"/><path class="st51" d="M411.52 387.48c5.628 4.177 11.682 7.824 18.09 10.798-18.551 2.549-34.235 6.585-47.405 11.294a121.933 121.933 0 01-7.895-8.674l37.21-13.419z"/></g></svg>