<svg version="1.1" id="monster" xmlns="http://www.w3.org/2000/svg" x="0" y="0" viewBox="0 0 1000 1000" xml:space="preserve"><style>.st5{fill:#1e1f1d}.st9{fill:#fff}.st52{fill:#98c01e}</style><g id="XMLID_50_"><path class="st9" d="M345.133 96.793c0 10.09-8.227 18.318-18.319 18.318-10.13 0-18.358-8.227-18.358-18.318 0-10.132 8.228-18.359 18.358-18.359 10.092 0 18.319 8.227 18.319 18.359z"/><path class="st52" d="M420.675 375.616c8.834-88.956-7.376-155.38-17.468-186.22-17.02 14.752-39.188 23.708-63.424 23.708-53.535 0-97.061-43.525-97.061-97.061 0-53.495 43.526-97.02 97.061-97.02 53.495 0 97.02 43.525 97.02 97.02 0 19.169-5.592 37.041-15.237 52.117 9.483 24.316 34.163 100.303 23.303 209.887l-24.194-2.431zm-8.187-259.573c0-40.08-32.624-72.705-72.705-72.705-40.12 0-72.745 32.624-72.745 72.705 0 40.121 32.624 72.745 72.745 72.745 40.081 0 72.705-32.624 72.705-72.745z"/><path class="st5" d="M326.815 78.434c-10.131 0-18.359 8.227-18.359 18.359 0 10.09 8.228 18.318 18.358 18.318 10.092 0 18.319-8.227 18.319-18.318 0-10.132-8.227-18.359-18.318-18.359zm-10.82 52.685c0-4.134-3.405-7.538-7.539-7.538s-7.538 3.404-7.538 7.538c0 4.133 3.404 7.538 7.538 7.538s7.538-3.405 7.538-7.538zm-30.72-15.076c0-30.03 24.438-54.468 54.508-54.468 30.03 0 54.468 24.438 54.468 54.468 0 30.07-24.438 54.508-54.468 54.508-30.07 0-54.508-24.437-54.508-54.508z"/><path class="st9" d="M339.783 188.788c-40.12 0-72.745-32.624-72.745-72.745 0-40.08 32.624-72.705 72.745-72.705 40.081 0 72.705 32.624 72.705 72.705 0 40.121-32.624 72.745-72.705 72.745zm54.468-72.745c0-30.03-24.438-54.468-54.468-54.468-30.07 0-54.508 24.438-54.508 54.468 0 30.07 24.438 54.508 54.508 54.508 30.03 0 54.468-24.437 54.468-54.508z"/><path class="st9" d="M300.918 131.119c0-4.134 3.404-7.538 7.538-7.538s7.538 3.404 7.538 7.538c0 4.133-3.404 7.538-7.538 7.538s-7.538-3.405-7.538-7.538z"/></g><g id="XMLID_49_"><path class="st5" d="M702.78 84.756c0-6.606-5.39-12.036-11.996-12.036-6.646 0-12.036 5.43-12.036 12.036 0 6.647 5.39 12.037 12.036 12.037 6.606 0 11.996-5.39 11.996-12.037zM671.17 88.85c0-2.23-1.823-4.094-4.093-4.094s-4.134 1.865-4.134 4.094a4.151 4.151 0 004.134 4.133c2.27 0 4.093-1.864 4.093-4.133zm-19.331 7.943c0-17.873 14.549-32.421 32.38-32.421 17.873 0 32.422 14.548 32.422 32.421 0 17.831-14.55 32.38-32.421 32.38-17.832 0-32.381-14.549-32.381-32.38z"/><path class="st52" d="M684.219 47.391c-27.234 0-49.402 22.168-49.402 49.402s22.168 49.402 49.402 49.402c27.274 0 49.402-22.168 49.402-49.402s-22.128-49.402-49.402-49.402zM610.5 96.793c0-40.648 33.07-73.718 73.718-73.718s73.717 33.07 73.717 73.718-33.069 73.718-73.717 73.718c-13.05 0-25.288-3.445-35.948-9.443-13.252 27.315-42.552 97.79-29.057 163.808l-23.83 4.864c-16.007-78.42 20.385-158.865 33.475-184.437-11.387-12.969-18.358-29.949-18.358-48.51z"/><path class="st9" d="M684.219 64.372c-17.832 0-32.381 14.548-32.381 32.421 0 17.831 14.549 32.38 32.38 32.38 17.873 0 32.422-14.548 32.422-32.38 0-17.873-14.55-32.421-32.421-32.421zm0 81.823c-27.234 0-49.402-22.168-49.402-49.402s22.168-49.402 49.402-49.402c27.274 0 49.402 22.168 49.402 49.402s-22.128 49.402-49.402 49.402z"/><path class="st9" d="M667.076 84.756c2.27 0 4.093 1.865 4.093 4.094 0 2.27-1.823 4.133-4.093 4.133a4.151 4.151 0 01-4.134-4.133c0-2.23 1.865-4.094 4.134-4.094zM690.784 72.72c6.606 0 11.996 5.43 11.996 12.036 0 6.647-5.39 12.037-11.996 12.037-6.646 0-12.036-5.39-12.036-12.037 0-6.606 5.39-12.036 12.036-12.036z"/></g><linearGradient id="SVGID_1_" gradientUnits="userSpaceOnUse" x1="362.522" y1="1025.576" x2="660.459" y2="207"><stop offset="0" stop-color="#97c11e"/><stop offset=".109" stop-color="#a4c622"/><stop offset=".274" stop-color="#bed019"/><stop offset=".448" stop-color="#d0d70f"/><stop offset=".622" stop-color="#dada08"/><stop offset=".794" stop-color="#dedc06"/></linearGradient><path d="M757.72 940.752h-13.498V257.397c0-15.71-12.718-28.416-28.408-28.416h-431.63c-15.674 0-28.395 12.706-28.395 28.416v683.355h-13.495c-7.264 0-13.144 5.86-13.144 13.125v13.977c0 7.241 5.88 13.113 13.144 13.113h139.099c7.233 0 13.117-5.872 13.117-13.113v-13.977c0-7.264-5.884-13.125-13.117-13.125h-59.044v-208.75h355.323v208.75h-59.066a13.108 13.108 0 00-13.123 13.125v13.977c0 7.241 5.867 13.113 13.123 13.113H757.72c7.239 0 13.13-5.872 13.13-13.113v-13.977c0-7.264-5.891-13.125-13.13-13.125z" fill="url(#SVGID_1_)"/><g id="XMLID_46_"><path d="M643.679 484.85a181.223 181.223 0 0112.824 17.698c-39.384 41.274-94.963 66.991-156.51 66.991-61.57 0-117.125-25.717-156.531-66.99 3.918-6.151 8.2-12.073 12.802-17.7 35.647 38.883 86.83 63.324 143.73 63.324 56.877 0 108.082-24.441 143.685-63.323z" fill="#a3201b"/><path d="M499.993 416.629c57.948 0 109.678 26.582 143.686 68.22-35.603 38.883-86.808 63.324-143.686 63.324-56.9 0-108.082-24.441-143.73-63.323 34.009-41.64 85.76-68.221 143.73-68.221z" fill="#e32d28"/><path class="st5" d="M716.387 353.146c0 57.948-22.779 110.565-59.884 149.402a181.24 181.24 0 00-12.824-17.698c-34.008-41.64-85.738-68.221-143.686-68.221-57.97 0-109.721 26.582-143.73 68.22a184.832 184.832 0 00-12.801 17.7C306.379 463.71 283.6 411.093 283.6 353.145c0-15.01 1.504-29.703 4.441-43.803 51.206 48.313 127.148 78.904 211.951 78.904 84.736 0 160.678-30.59 211.929-78.904a216.42 216.42 0 014.465 43.803z"/></g></svg>