<svg version="1.1" id="monster" xmlns="http://www.w3.org/2000/svg" x="0" y="0" viewBox="0 0 1000 1000" xml:space="preserve"><style>.st0{fill:#c783b7}.st1{fill:#125785}.st2{fill:#8e4c87}.st3{fill:#1b70b6}.st5{fill:#1e1f1d}.st9{fill:#fff}</style><g id="XMLID_236_"><path class="st0" d="M882.682 83.133c18.775-17.636 49.768 12.516 57.679 63.015-20.59-13.816-42.832-15.09-57.38-13.897 4.226-28.501-.109-48.278-.299-49.118z"/><path class="st1" d="M874.934 164.842c-10.268-1.436-17.772-1.3-18.368-1.274 4.605-8.94 8.155-18.449 10.295-28.554.569-.19 6.745-1.978 16.12-2.764-1.437 9.943-3.956 20.942-8.047 32.592z"/><path class="st0" d="M917.875 270.743c-3.685-47.708-34.46-68.433-55.972-77.157a178.363 178.363 0 0013.031-28.744c21.592 2.953 55.457 12.787 62.988 45.135-4.145 20.806-10.837 41.287-20.048 60.766z"/><path class="st1" d="M791.085 232.273s8.724 7.91 19.371 21.538c-23.976 19.696-55.511 38.308-96.853 53.994l-6.231-37.035 23.407-6.285s28.907-10.89 60.306-32.212z"/><path class="st2" d="M882.682 83.133c.19.84 4.524 20.617.298 49.118-9.374.785-15.55 2.573-16.12 2.763.84-3.955 1.464-7.993 1.843-12.11 1.897-20.508 7.125-33.323 13.98-39.77z"/><path class="st3" d="M810.456 253.811c17.583 22.594 40.394 60.902 37.44 105.116-31.263 24.572-70.275 42.642-117.117 50.77l-17.176-101.892c41.342-15.686 72.877-34.298 96.853-53.994z"/><path class="st1" d="M840.852 187.599s9.104 1.138 21.05 5.987c-5.038 9.049-11.188 18.26-18.638 27.417-13.058-8.182-23.651-11.026-23.651-11.026 7.558-6.828 14.792-14.278 21.24-22.378z"/><path class="st0" d="M847.896 358.927c2.954-44.214-19.857-82.522-37.44-105.116 13.058-10.701 23.868-21.727 32.808-32.808 21.267 13.329 49.09 40.8 48.44 93.141-12.327 16.445-26.93 31.562-43.808 44.783z"/><path class="st2" d="M856.566 163.568c.596-.027 8.1-.162 18.368 1.274a178.363 178.363 0 01-13.031 28.744c-11.947-4.85-21.05-5.987-21.05-5.987 5.987-7.477 11.324-15.496 15.686-24.03h.027z"/><path class="st3" d="M937.922 209.977c-7.53-32.348-41.396-42.182-62.988-45.135 4.09-11.65 6.61-22.65 8.047-32.592 14.548-1.191 36.79.081 57.38 13.898 2.248 14.386 2.628 30.452.298 47.546a258.523 258.523 0 01-2.737 16.283zM843.264 221.003c7.45-9.157 13.6-18.368 18.639-27.417 21.511 8.724 52.287 29.449 55.971 77.157v.028a250.146 250.146 0 01-26.17 43.373c.65-52.34-27.173-79.812-48.44-93.141z"/><path class="st2" d="M791.085 232.273c9.537-6.475 19.29-13.898 28.528-22.296 0 0 10.593 2.844 23.65 11.026-8.94 11.08-19.749 22.107-32.807 32.808-10.647-13.627-19.37-21.538-19.37-21.538z"/></g><g id="XMLID_235_"><path class="st0" d="M117.016 133.045c-4.28-29.096.325-49.09.325-49.09-18.801-17.663-49.794 12.49-57.678 62.962 20.59-13.79 42.805-15.064 57.353-13.872z"/><path class="st3" d="M125.036 165.637a177.237 177.237 0 01-8.02-32.592c-14.548-1.191-36.763.082-57.353 13.872-2.248 14.412-2.628 30.478-.298 47.572a256.623 256.623 0 002.71 16.228c7.585-32.293 41.395-42.127 62.96-45.08zM152.1 359.722c31.264 24.572 70.276 42.67 117.118 50.77l17.176-101.865c-41.342-15.686-72.877-34.298-96.853-53.994-17.61 22.595-40.42 60.875-37.44 105.089zM156.733 221.825c-7.45-9.184-13.6-18.395-18.667-27.444-21.51 8.723-52.26 29.476-55.944 77.157v.027c7.18 15.172 15.903 29.747 26.171 43.401-.65-52.368 27.173-79.839 48.44-93.14z"/><path class="st2" d="M117.341 83.955s-4.605 19.994-.325 49.09c9.807.786 16.147 2.737 16.147 2.737a103.42 103.42 0 01-1.842-12.056c-1.897-20.509-7.125-33.323-13.98-39.77zM159.117 188.367c-5.96-7.477-11.298-15.47-15.686-24.004 0 0-7.694-.216-18.395 1.274a183.232 183.232 0 0013.03 28.744c11.541-4.687 20.428-5.933 21.05-6.014zM180.384 210.772s-10.593 2.844-23.651 11.053c8.94 11.053 19.75 22.107 32.808 32.808 10.62-13.654 19.37-21.565 19.37-21.565-9.536-6.475-19.289-13.898-28.527-22.297z"/><path class="st0" d="M125.036 165.637c-21.566 2.953-55.376 12.787-62.962 45.08 4.145 20.834 10.837 41.343 20.048 60.821 3.685-47.681 34.434-68.434 55.944-77.157a183.232 183.232 0 01-13.03-28.744z"/><path class="st1" d="M159.117 188.367c-.623.081-9.51 1.327-21.05 6.014 5.066 9.049 11.216 18.26 18.666 27.444 13.058-8.209 23.65-11.053 23.65-11.053-7.558-6.828-14.791-14.305-21.239-22.405h-.027zM133.163 135.782s-6.34-1.95-16.147-2.737a177.237 177.237 0 008.02 32.592c10.7-1.49 18.395-1.274 18.395-1.274-4.606-8.94-8.155-18.476-10.268-28.581z"/><path class="st0" d="M156.733 221.825c-21.267 13.302-49.09 40.773-48.44 93.141 12.354 16.445 26.956 31.562 43.807 44.756-2.98-44.214 19.831-82.494 37.441-105.089-13.059-10.701-23.868-21.755-32.808-32.808z"/><path class="st1" d="M292.625 271.565l-23.407-6.285s-28.908-10.89-60.306-32.212c0 0-8.751 7.911-19.371 21.565 23.976 19.696 55.51 38.308 96.853 53.994l6.231-37.062z"/></g><path d="M694.46 910.526c-62.485-26.315 43.108-122.97 86.22-513.01 24.418-221.033-77.104-283.833-169.677-296.768L641.81 42.52c1.826-3.38-2.148-7.75-10.177-11.241-7.99-3.5-19.898-5.809-32.355-5.334-21.053.798-39.481 4.393-56.229 9.082-16.721 4.731-31.792 10.613-45.889 17.115-14.094 6.478-27.17 13.6-39.588 21.122-12.375 7.526-24.285 15.506-35.299 23.95l-1.608 1.474-1.72 1.37c-8.03 5.134-15.264 10.575-22.22 16.16a315.019 315.019 0 00-19.707 17.35c-12.43 11.885-23.445 24.388-32.81 37.248l-35.655-40.761c-2.627-3.002-7.26-3.025-12.569-.488-5.323 2.548-11.275 7.716-16.088 14.787-11.234 16.577-20.393 33.846-26.994 51.325-6.628 17.492-10.685 35.148-12.115 52.37a175.614 175.614 0 002.833 49.848 190.073 190.073 0 006.23 23.171c.645 1.893 7.176 19.861 7.176 19.861-.012 1.143 0 2.322-.012 3.479l-55.005-1.87c-8.676-.298-11.756 10.895-6.723 24.826 19.87 55.229 40.234 110.124 60.696 164.996l-32.753-.738c-8.693-.19-11.565 10.978-6.41 24.815l55.127 146.478c.056.547.083 1.082.11 1.632l-31.97-.622c-8.691-.166-11.51 11.005-6.297 24.84l47.839 125.677c.494 7.514.893 14.121 1.223 19.647 4.815 82.725-25.88 53.441-71.134 76.02-45.253 22.577 62.5 24.002 148.704 24.002 86.218 0 25.866-54.045 34.485-100.022 8.625-45.964 28.014-49.204 135.781-44.916 107.753 4.296 60.337 85.281 47.399 120.935-12.926 35.649 124.996 22.21 196.116 18.077 71.134-4.097-17.229-31.319-79.741-57.659z" fill="#66a0d7"/><g id="XMLID_14_"><path class="st5" d="M501.73 561.891c-57.663 0-109.14 26.441-142.968 67.836a183.966 183.966 0 00-12.733 17.605l-.023.023c-36.863-38.631-59.52-90.992-59.52-148.632 0-14.931 1.495-29.568 4.418-43.57 50.933 48.078 126.473 78.507 210.826 78.507 84.285 0 159.824-30.429 210.803-78.507 2.9 14.002 4.44 28.638 4.44 43.57 0 57.64-22.68 110-59.543 148.632l-.022-.023a180.29 180.29 0 00-12.757-17.605c-33.827-41.395-85.281-67.836-142.921-67.836z"/><path d="M346.029 647.332a183.966 183.966 0 0112.733-17.605c35.459 38.676 86.37 62.987 142.968 62.987 56.575 0 107.508-24.311 142.921-62.987a180.29 180.29 0 0112.757 17.605l.022.023c-39.197 41.032-94.48 66.612-155.7 66.612-61.243 0-116.504-25.58-155.724-66.612l.023-.024z" fill="#a3201b"/><path d="M501.73 561.891c57.64 0 109.094 26.441 142.921 67.836-35.413 38.676-86.346 62.987-142.921 62.987-56.598 0-107.51-24.311-142.968-62.987 33.827-41.395 85.305-67.836 142.967-67.836z" fill="#e32d28"/></g><g id="XMLID_15_"><linearGradient id="SVGID_1_" gradientUnits="userSpaceOnUse" x1="399.915" y1="295.624" x2="615.047" y2="295.624"><stop offset="0" stop-color="#2273b7"/><stop offset=".6" stop-color="#3da4dd"/></linearGradient><path d="M399.915 295.613c0-59.404 48.152-107.555 107.556-107.555 59.424 0 107.576 48.151 107.576 107.555 0 59.383-48.152 107.577-107.576 107.577-59.404 0-107.556-48.194-107.556-107.577zm177.127 0c0-38.38-31.15-69.53-69.571-69.53-38.401 0-69.51 31.15-69.51 69.53s31.109 69.53 69.51 69.53c38.422 0 69.572-31.15 69.572-69.53z" fill="url(#SVGID_1_)"/><path class="st9" d="M344.72 295.613c0-89.928 72.843-162.792 162.75-162.792s162.772 72.864 162.772 162.792-72.864 162.792-162.771 162.792-162.75-72.863-162.75-162.792zm162.75-107.555c-59.403 0-107.555 48.152-107.555 107.555 0 59.383 48.152 107.577 107.556 107.577 59.424 0 107.576-48.194 107.576-107.577 0-59.404-48.152-107.555-107.576-107.555z"/><path class="st9" d="M458.777 297.697c0-7.022 5.667-12.69 12.71-12.69 7 0 12.689 5.668 12.689 12.69 0 7.022-5.688 12.71-12.69 12.71a12.694 12.694 0 01-12.71-12.71z"/><path class="st5" d="M437.961 295.613c0-38.38 31.109-69.53 69.51-69.53 38.422 0 69.572 31.15 69.572 69.53s-31.15 69.53-69.572 69.53c-38.401 0-69.51-31.15-69.51-69.53zm33.526-10.605c-7.043 0-12.71 5.667-12.71 12.689s5.667 12.71 12.71 12.71c7 0 12.689-5.688 12.689-12.71 0-7.022-5.688-12.69-12.69-12.69zm61.383-21.42c0-14.023-11.377-25.399-25.4-25.399-14.001 0-25.378 11.376-25.378 25.4 0 14.022 11.377 25.377 25.379 25.377 14.022 0 25.399-11.355 25.399-25.378z"/><path class="st9" d="M507.47 238.189c14.023 0 25.4 11.376 25.4 25.4 0 14.022-11.377 25.377-25.4 25.377-14.001 0-25.378-11.355-25.378-25.378s11.377-25.399 25.379-25.399z"/></g></svg>