<svg version="1.1" id="monster" xmlns="http://www.w3.org/2000/svg" x="0" y="0" viewBox="0 0 1000 1000" xml:space="preserve"><style>.st9{fill:#fff}.st57{fill:#030405}</style><linearGradient id="SVGID_1_" gradientUnits="userSpaceOnUse" x1="324.412" y1="1037.2" x2="704.942" y2="-8.298"><stop offset="0" stop-color="#97c11e"/><stop offset=".109" stop-color="#a4c622"/><stop offset=".274" stop-color="#bed019"/><stop offset=".448" stop-color="#d0d70f"/><stop offset=".622" stop-color="#dada08"/><stop offset=".794" stop-color="#dedc06"/></linearGradient><path d="M829.162 928.862h-17.239V56.072c0-20.066-16.244-36.297-36.28-36.297H224.357c-20.022 0-36.266 16.23-36.266 36.296v872.791h-17.238c-9.275 0-16.788 7.485-16.788 16.762v17.854c0 9.247 7.513 16.747 16.788 16.747h177.661c9.237 0 16.751-7.5 16.751-16.747v-17.854c0-9.277-7.514-16.762-16.75-16.762h-75.413V662.245h453.824v266.617h-75.442c-9.264 0-16.76 7.485-16.76 16.762v17.854c0 9.247 7.496 16.747 16.76 16.747h177.678c9.245 0 16.772-7.5 16.772-16.747v-17.854c0-9.277-7.527-16.762-16.772-16.762z" fill="url(#SVGID_1_)"/><g id="XMLID_23_"><path class="st57" d="M356.838 292.49c-45.78 0-82.846-37.114-82.846-82.8 0-45.78 37.066-82.941 82.846-82.941 45.733 0 82.847 37.161 82.847 82.94 0 45.687-37.114 82.8-82.847 82.8zm34.053-117.323c0-18.84-15.26-34.1-34.053-34.1-18.84 0-34.1 15.26-34.1 34.1 0 18.792 15.26 34.052 34.1 34.052 18.792 0 34.053-15.26 34.053-34.052zm-55.812 48.087c0-9.372-7.63-17.05-17.05-17.05-9.42 0-17.05 7.678-17.05 17.05 0 9.373 7.63 17.098 17.05 17.098 9.42 0 17.05-7.725 17.05-17.098z"/><path class="st9" d="M322.739 175.167c0-18.84 15.26-34.1 34.099-34.1 18.792 0 34.053 15.26 34.053 34.1 0 18.792-15.26 34.052-34.053 34.052-18.84 0-34.1-15.26-34.1-34.052zM318.029 206.204c9.42 0 17.05 7.678 17.05 17.05 0 9.373-7.63 17.098-17.05 17.098-9.42 0-17.05-7.725-17.05-17.098 0-9.372 7.63-17.05 17.05-17.05z"/><path class="st9" d="M356.838 346.606c-75.64 0-136.916-61.323-136.916-136.916 0-75.688 61.276-136.963 136.916-136.963 75.594 0 136.916 61.275 136.916 136.963 0 75.593-61.322 136.916-136.916 136.916zm0-54.117c45.733 0 82.847-37.113 82.847-82.8 0-45.779-37.114-82.94-82.847-82.94-45.78 0-82.846 37.161-82.846 82.94 0 45.687 37.066 82.8 82.846 82.8z"/></g><g id="XMLID_22_"><path class="st9" d="M730.293 209.691c0 45.734-37.066 82.8-82.846 82.8-45.733 0-82.846-37.066-82.846-82.8 0-45.826 37.113-82.94 82.846-82.94 45.78 0 82.846 37.114 82.846 82.94zm-219.762 0c0 75.547 61.323 136.87 136.916 136.87 75.64 0 136.916-61.323 136.916-136.87 0-75.64-61.276-136.915-136.916-136.915-75.593 0-136.916 61.276-136.916 136.915z"/><path class="st9" d="M686.256 206.206c-9.42 0-17.05 7.678-17.05 17.098 0 9.325 7.63 17.048 17.05 17.048 9.42 0 17.05-7.723 17.05-17.048 0-9.42-7.63-17.098-17.05-17.098zM681.546 175.121c0-18.745-15.26-34.005-34.099-34.005-18.792 0-34.052 15.26-34.052 34.005 0 18.887 15.26 34.1 34.052 34.1 18.84 0 34.1-15.213 34.1-34.1z"/><path class="st57" d="M564.6 209.691c0 45.734 37.114 82.8 82.847 82.8 45.78 0 82.847-37.066 82.847-82.8 0-45.826-37.067-82.94-82.847-82.94-45.733 0-82.846 37.114-82.846 82.94zm48.795-34.57c0-18.745 15.26-34.005 34.052-34.005 18.84 0 34.1 15.26 34.1 34.005 0 18.887-15.26 34.1-34.1 34.1-18.792 0-34.052-15.213-34.052-34.1zm55.812 48.183c0-9.42 7.63-17.098 17.05-17.098 9.42 0 17.05 7.678 17.05 17.098 0 9.325-7.63 17.048-17.05 17.048-9.42 0-17.05-7.723-17.05-17.048z"/></g><g id="XMLID_24_"><path fill="#c8c7c7" d="M616.738 377.047v11.78H361.25v-11.78h129.686z"/><path d="M540.993 438.13l23.747-33.925 51.998 100.492v-127.65h33.209v68.432s-1.037 82.192-42.877 141.296c0 0-3.26-4.881-10.12-11.685-15.55-15.436-49.606-40.671-106.015-40.671-57.068 0-91.257 25.82-106.56 41.218-6.484 6.502-9.575 11.138-9.575 11.138-41.84-59.104-42.858-141.295-42.858-141.295v-68.433h29.307v127.65l52.018-100.492 23.728 33.925 25.274-30.062 28.666 32.776 24.803-32.776 25.255 30.062z" fill="#1e1f1d"/><path d="M384.375 575.637c22.031 29.363 55.447 51.829 106.108 51.829 50.924 0 84.415-22.711 106.428-52.357l.038-.02c6.86 6.805 10.12 11.686 10.12 11.686-23.483 33.208-59.857 59.123-116.134 59.123-56.296 0-92.651-25.915-116.135-59.123 0 0 3.091-4.636 9.575-11.138z" fill="#9c1c1b"/><path class="st9" d="M413.267 404.205l-52.018 100.492v-115.87h255.49v115.87l-52-100.492-23.746 33.925-25.255-30.062-24.803 32.776-28.666-32.776-25.274 30.062z"/><path d="M490.483 627.466c-50.66 0-84.077-22.466-106.109-51.83 15.304-15.397 49.493-41.217 106.561-41.217 56.409 0 90.465 25.235 106.014 40.67l-.038.02c-22.013 29.646-55.504 52.357-106.428 52.357z" fill="#e43333"/></g></svg>