<svg version="1.1" id="monster" xmlns="http://www.w3.org/2000/svg" x="0" y="0" viewBox="0 0 1000 1000" xml:space="preserve"><style>.st9{fill:#fff}.st25{fill:#063e51}.st26{fill:#b2b1b0}.st37{fill:#c39e05}.st40{fill:#f7b21c}</style><linearGradient id="SVGID_1_" gradientUnits="userSpaceOnUse" x1="295.405" y1="892.504" x2="710.792" y2="299.27"><stop offset="0" stop-color="#f8b133"/><stop offset=".236" stop-color="#f9b531"/><stop offset=".53" stop-color="#fbc02b"/><stop offset=".854" stop-color="#fed11a"/><stop offset="1" stop-color="#ffd907"/></linearGradient><path d="M875.321 555.91C851.697 496.728 815.04 447.78 772.695 414.29l31.385-15.12c8.385-3.886 5.805-15.724-6.305-24.893-42.878-32.437-90.763-51.436-134.996-55.675L682.162 290c2.587-3.826 2.125-7.802-.877-11.028-2.99-3.207-8.48-5.638-15.505-6.17-23.062-1.762-45.268-.195-65.674 4.231-15.85 3.425-30.568 8.589-44.026 15.082a295.9 295.9 0 00-56.167-5.38c-19.155 0-37.89 1.848-56.042 5.36-13.429-6.48-28.138-11.637-43.978-15.062-20.403-4.426-42.61-5.993-65.66-4.23-7.028.531-12.525 2.962-15.499 6.169-3.017 3.226-3.482 7.202-.882 11.028l19.369 28.602c-44.233 4.239-92.118 23.238-134.994 55.675-12.09 9.17-14.688 21.007-6.306 24.893l31.384 15.12c-42.342 33.49-78.982 82.438-102.626 141.618-5.992 15.023-2.38 27.468 6.829 26.76l59.73-3.77c-11.994 30.077-20.043 63.45-22.715 98.988-2.688 35.526-.043 73.227 9.268 111.441 4.023 16.48 14.627 25.188 21.72 19.331l49.047-39.156c9.81 39.402 28.492 79.563 57.792 115.887 29.16 36.247 69.378 68.498 118.457 90.416 8.588 3.847 16.782 5.117 22.726 4.233 5.951-.876 9.62-3.857 9.652-8.483l.961-100.49a293.81 293.81 0 0041.767 2.971c14.235 0 28.247-1.033 41.944-2.981l.962 100.5c.04 4.626 3.699 7.607 9.65 8.483 5.943.884 14.138-.386 22.726-4.233 49.078-21.918 89.308-54.17 118.467-90.416 29.31-36.324 47.974-76.485 57.793-115.887l49.035 39.156c7.093 5.857 17.7-2.851 21.723-19.33 9.308-38.215 11.954-75.916 9.26-111.442-2.668-35.537-10.715-68.911-22.718-98.987l59.737 3.768c9.21.709 12.82-11.736 6.83-26.759z" fill="url(#SVGID_1_)"/><g id="XMLID_258_"><path d="M500 714.442c51.807 0 83.084 23.195 97.364 37.354l-.034.035c-20.218 27.21-50.977 48.085-97.763 48.085-46.51 0-77.199-20.633-97.433-47.601l-.018-.017c14.038-14.107 45.454-37.856 97.884-37.856z" fill="#e43333"/><path d="M393.34 762.545s2.84-4.258 8.776-10.247l.018.017c20.234 26.968 50.924 47.6 97.433 47.6 46.787 0 77.545-20.874 97.763-48.084l.034-.035c6.284 6.266 9.278 10.749 9.278 10.749-21.55 30.481-54.957 54.299-106.642 54.299-51.703 0-85.092-23.818-106.66-54.3z" fill="#9c1c1b"/><path d="M646.038 632.778s-.952 75.485-39.396 129.767c0 0-2.995-4.483-9.278-10.749-14.28-14.16-45.557-37.354-97.364-37.354-52.43 0-83.846 23.749-97.884 37.856-5.936 5.989-8.775 10.247-8.775 10.247-38.427-54.282-39.362-129.767-39.362-129.767v-62.85h26.899v117.235l47.79-92.292 21.793 31.156 23.194-27.608 26.345 30.1 22.762-30.1 23.212 27.608 21.81-31.156 47.755 92.292V569.928h30.5v62.85z" fill="#1e1f1d"/><path fill="#c8c7c7" d="M380.878 580.746v-10.818H615.54v10.818z"/><path class="st9" d="M380.878 580.746h234.661v106.417l-47.756-92.292-21.81 31.156-23.211-27.608-22.762 30.1-26.345-30.1-23.194 27.608-21.792-31.156-47.791 92.292z"/></g><g id="XMLID_2_"><path class="st9" d="M427.667 466.82c0 5.916-4.786 10.722-10.683 10.722-5.955 0-10.74-4.806-10.74-10.722 0-5.915 4.785-10.74 10.74-10.74 5.897 0 10.683 4.825 10.683 10.74zM397.016 427.918c0 11.85-9.612 21.461-21.443 21.461-11.851 0-21.462-9.61-21.462-21.461 0-11.89 9.61-21.443 21.462-21.443 11.831 0 21.443 9.553 21.443 21.442z"/><path class="st26" d="M383.231 540.05c56.976 0 104.15-42.291 111.655-97.2a107.9 107.9 0 01.21 6.606c0 58.067-47.059 105.164-105.145 105.164-38.98 0-73.02-21.174-91.208-52.63h.02c20.657 23.338 50.85 38.06 84.468 38.06z"/><path class="st25" d="M397.016 427.918c0-11.89-9.612-21.443-21.443-21.443-11.851 0-21.462 9.553-21.462 21.442 0 11.852 9.61 21.462 21.462 21.462 11.831 0 21.443-9.61 21.443-21.462zm54.352 21.538c0 33.906-27.51 61.398-61.417 61.398-33.944 0-61.475-27.492-61.475-61.398 0-33.964 27.53-61.475 61.475-61.475 33.906 0 61.417 27.511 61.417 61.475zm-23.701 17.364c0-5.915-4.786-10.74-10.683-10.74-5.955 0-10.74 4.825-10.74 10.74 0 5.916 4.785 10.722 10.74 10.722 5.897 0 10.683-4.806 10.683-10.722z"/><path class="st9" d="M284.672 449.456c0-58.144 47.154-105.241 105.28-105.241 55.864 0 101.545 43.575 104.934 98.636-7.505 54.908-54.679 97.2-111.655 97.2-33.619 0-63.811-14.723-84.468-38.06h-.02c-8.96-15.451-14.071-33.409-14.071-52.535zm105.28 61.398c33.905 0 61.416-27.492 61.416-61.398 0-33.964-27.51-61.475-61.417-61.475-33.944 0-61.475 27.511-61.475 61.475 0 33.906 27.53 61.398 61.475 61.398z"/></g><g id="XMLID_1_"><path class="st9" d="M606.495 345.413c55.961 0 101.68 43.651 105.01 98.731-7.618 54.87-54.716 97.104-111.672 97.104-33.62 0-63.83-14.722-84.45-38.041l-.038.02c-8.94-15.47-14.072-33.428-14.072-52.612 0-58.086 47.117-105.202 105.222-105.202zm61.456 105.202c0-33.905-27.512-61.398-61.456-61.398s-61.418 27.493-61.418 61.398c0 33.926 27.474 61.456 61.418 61.456s61.456-27.53 61.456-61.456z"/><path class="st25" d="M613.598 429.154c0-11.87-9.61-21.5-21.461-21.5-11.814 0-21.444 9.63-21.444 21.5 0 11.831 9.63 21.423 21.444 21.423 11.85 0 21.46-9.592 21.46-21.423zm30.67 38.865c0-5.955-4.824-10.741-10.702-10.741a10.716 10.716 0 00-10.76 10.74c0 5.916 4.787 10.722 10.76 10.722 5.878 0 10.703-4.806 10.703-10.721zm23.683-17.404c0 33.926-27.512 61.456-61.456 61.456s-61.418-27.53-61.418-61.456c0-33.905 27.474-61.398 61.418-61.398s61.456 27.493 61.456 61.398z"/><path class="st9" d="M613.598 429.154c0 11.831-9.61 21.423-21.461 21.423-11.814 0-21.444-9.592-21.444-21.423 0-11.87 9.63-21.5 21.444-21.5 11.85 0 21.46 9.63 21.46 21.5z"/><path class="st26" d="M599.833 541.249c56.956 0 104.054-42.235 111.673-97.104.153 2.144.21 4.307.21 6.47 0 58.144-47.077 105.203-105.22 105.203-38.942 0-72.944-21.136-91.151-52.592l.039-.019c20.619 23.319 50.83 38.042 84.449 38.042z"/><path class="st9" d="M644.269 468.019c0 5.915-4.825 10.72-10.703 10.72-5.973 0-10.76-4.805-10.76-10.72 0-5.955 4.787-10.741 10.76-10.741 5.878 0 10.703 4.786 10.703 10.74z"/></g><g id="XMLID_191_"><path class="st37" d="M497.213 279.524c-156.693 0-224.795 28.773-224.795 28.773a217.854 217.854 0 01-2.36-14.369h.018s67.316-34.54 227.137-34.54c157.705 0 225.353 33.614 227.153 34.523a217.663 217.663 0 01-2.36 14.386s-68.102-28.773-224.793-28.773z"/><path d="M272.418 308.297s68.103-28.773 224.795-28.773c156.691 0 224.794 28.773 224.794 28.773a220.705 220.705 0 01-6.013 23.755c-55.604-11.781-133.076-19.105-218.781-19.105s-163.16 7.324-218.781 19.105a220.756 220.756 0 01-6.014-23.755z" fill="#e5b90d"/><path d="M270.076 293.928h-.017a229.093 229.093 0 01-1.976-30.17c0-126.556 102.573-229.13 229.13-229.13 126.573 0 229.129 102.574 229.129 229.13a228.82 228.82 0 01-1.976 30.153c-1.8-.909-69.448-34.523-227.153-34.523-159.821 0-227.137 34.54-227.137 34.54z" fill="#f1c906"/></g><g id="XMLID_190_"><path class="st40" d="M314.024 148.006s2.85 29.472-37.354 33.632c-55.342-74.588-50.797-161.953-50.797-161.953s22.374 77.908 88.169 128.304l-.018.017z"/><path class="st37" d="M276.67 181.638c40.204-4.16 37.354-33.632 37.354-33.632l.018-.017c14.177 10.89 30.38 20.486 48.822 27.74 0 0 0 14.841-14.159 32.636-14.193 17.777-36.236 11.485-36.236 11.485a228.065 228.065 0 01-35.8-38.212z"/></g><g id="XMLID_189_"><path class="st37" d="M631.563 175.73s0 14.84 14.176 32.635c14.195 17.777 36.254 11.485 36.254 11.485a227.267 227.267 0 0035.782-38.212c-40.186-4.16-37.355-33.632-37.355-33.632l-.018-.017c-14.193 10.89-30.397 20.486-48.839 27.74z"/><path class="st40" d="M717.775 181.638c55.342-74.588 50.797-161.953 50.797-161.953s-22.374 77.908-88.17 128.304l.018.017s-2.831 29.471 37.355 33.632z"/></g></svg>