<svg version="1.1" id="monster" xmlns="http://www.w3.org/2000/svg" x="0" y="0" viewBox="0 0 1000 1000" xml:space="preserve"><style>.st9{fill:#fff}.st25{fill:#063e51}.st26{fill:#b2b1b0}.st43{fill:#f2aabb}.st44{fill:#ea6379}.st45{fill:#c83c5a}.st46{fill:#cf4162}</style><g id="XMLID_91_"><path class="st43" d="M262.545 932.477s.754 25.43-25.968 27.618a19.018 19.018 0 01-7.891-15.459c0-10.545 8.572-19.118 19.082-19.118 5.954 0 11.262 2.726 14.777 6.959z"/><path class="st44" d="M358.313 809.593V439.9h45.912v379.162c-16.034-7.999-45.912-9.47-45.912-9.47z"/><path class="st45" d="M358.313 827.347v-17.754s29.878 1.47 45.912 9.469v19.87a137.558 137.558 0 00-45.912-11.585z"/><path class="st46" d="M262.545 932.477a19.025 19.025 0 014.376 12.16c0 10.58-8.572 19.117-19.153 19.117-4.197 0-8.035-1.363-11.191-3.659 26.722-2.188 25.968-27.618 25.968-27.618z"/><path class="st43" d="M284.066 882.764s.79 25.394-25.932 27.582c-4.807-3.408-7.928-9.075-7.928-15.423 0-10.581 8.609-19.118 19.154-19.118 5.919 0 11.227 2.69 14.742 6.959h-.036z"/><path class="st46" d="M284.102 882.764a19.025 19.025 0 014.376 12.159c0 10.545-8.572 19.118-19.118 19.118-4.196 0-8.07-1.363-11.226-3.695 26.721-2.188 25.932-27.582 25.932-27.582h.036z"/><path class="st44" d="M486.47 965.69c0 5.524-.394 11.012-1.004 16.356h-275.54c-.573-5.344-1.004-10.832-1.004-16.356 0-76.65 62.16-138.738 138.81-138.738 3.551 0 7.066.144 10.581.395a137.558 137.558 0 0145.912 11.586c48.457 21.628 82.245 70.23 82.245 126.757zm-197.992-70.767c0-4.627-1.65-8.86-4.376-12.16a19.041 19.041 0 00-14.742-6.958c-10.545 0-19.153 8.537-19.153 19.118 0 6.349 3.12 12.016 7.927 15.423a18.803 18.803 0 0011.226 3.695c10.546 0 19.118-8.573 19.118-19.118zm-21.557 49.713c0-4.627-1.65-8.86-4.376-12.16-3.515-4.232-8.823-6.958-14.777-6.958-10.51 0-19.082 8.573-19.082 19.118 0 6.385 3.12 12.016 7.89 15.46 3.157 2.295 6.995 3.658 11.192 3.658 10.58 0 19.153-8.537 19.153-19.118z"/></g><g id="XMLID_92_"><path class="st46" d="M700.477 882.764a19.025 19.025 0 00-4.375 12.159c0 10.545 8.572 19.118 19.153 19.118 4.16 0 8.034-1.363 11.19-3.695-26.757-2.188-25.968-27.582-25.968-27.582z"/><path class="st43" d="M700.477 882.764s-.789 25.394 25.969 27.582c4.77-3.408 7.89-9.075 7.89-15.423 0-10.581-8.571-19.118-19.08-19.118a19.06 19.06 0 00-14.779 6.959z"/><path class="st44" d="M626.23 439.9h-45.875v379.162c16.069-7.999 45.876-9.47 45.876-9.47V439.9zM696.102 894.923c0-4.627 1.65-8.86 4.375-12.16a19.06 19.06 0 0114.778-6.958c10.51 0 19.082 8.537 19.082 19.118 0 6.349-3.12 12.016-7.891 15.423a18.776 18.776 0 01-11.19 3.695c-10.582 0-19.154-8.573-19.154-19.118zm40.71 30.595c10.51 0 19.082 8.573 19.082 19.118 0 6.385-3.12 12.016-7.891 15.46-3.157 2.295-6.995 3.658-11.191 3.658-10.581 0-19.154-8.537-19.154-19.118 0-4.627 1.65-8.86 4.376-12.16 3.515-4.232 8.824-6.958 14.778-6.958zm37.805 56.528c.61-5.344 1.04-10.832 1.04-16.356 0-76.65-62.16-138.738-138.81-138.738a149.2 149.2 0 00-10.616.395 137.573 137.573 0 00-45.876 11.586c-48.458 21.628-82.21 70.23-82.21 126.757 0 5.524.359 11.012 1.005 16.356h275.467z"/><path class="st46" d="M722.034 932.477a19.025 19.025 0 00-4.376 12.16c0 10.58 8.573 19.117 19.154 19.117 4.196 0 8.034-1.363 11.19-3.659-26.757-2.188-25.968-27.618-25.968-27.618z"/><path class="st45" d="M580.355 819.062v19.87a137.573 137.573 0 0145.876-11.585v-17.754s-29.807 1.47-45.876 9.469z"/><path class="st43" d="M755.894 944.636c0-10.545-8.573-19.118-19.082-19.118-5.954 0-11.263 2.726-14.778 6.959 0 0-.789 25.43 25.969 27.618a19.017 19.017 0 007.89-15.459z"/></g><path class="st44" d="M652.515 140.058c32.835-34.15 65.239-44.547 65.239-44.547-42.238 4.11-76.564 13.213-103.759 23.709-25.724-11.375-53.478-19.026-82.599-22.125 69.38-56.762 128.206-79.139 128.206-79.139-300.515 54.937-371.58 177.746-371.58 177.746v.025c-40.102 48.17-64.267 110.088-64.267 177.669 0 153.485 124.437 277.899 277.911 277.899 153.487 0 277.908-124.414 277.908-277.9 0-97.847-50.635-183.824-127.059-233.337z"/><g id="XMLID_6_"><path class="st25" d="M269.043 307.911c0-43.188 34.984-78.172 78.148-78.172 43.115 0 78.099 34.984 78.099 78.172 0 43.115-34.984 78.074-78.1 78.074-43.163 0-78.147-34.959-78.147-78.074zm126.132 22.081c0-7.522-6.111-13.657-13.585-13.657-7.571 0-13.682 6.135-13.682 13.657 0 7.523 6.111 13.634 13.682 13.634 7.474 0 13.585-6.111 13.585-13.634zm-39-49.47c0-15.117-12.222-27.265-27.243-27.265-15.094 0-27.315 12.148-27.315 27.266 0 15.07 12.221 27.291 27.315 27.291 15.021 0 27.242-12.221 27.242-27.291z"/><path class="st9" d="M347.19 174.087c71.04 0 129.126 55.41 133.435 125.425-9.543 69.822-69.529 123.6-141.98 123.6-42.749 0-81.141-18.721-107.41-48.398h-.024c-11.393-19.647-17.893-42.482-17.893-66.803 0-73.935 59.961-133.824 133.873-133.824zm78.1 133.824c0-43.188-34.984-78.172-78.1-78.172-43.163 0-78.147 34.984-78.147 78.172 0 43.115 34.984 78.074 78.148 78.074 43.115 0 78.099-34.959 78.099-78.074z"/><path class="st9" d="M301.617 280.523c0-15.118 12.221-27.266 27.315-27.266 15.021 0 27.242 12.148 27.242 27.266 0 15.07-12.22 27.291-27.242 27.291-15.094 0-27.315-12.221-27.315-27.291zM381.59 316.334c7.474 0 13.585 6.136 13.585 13.658 0 7.523-6.111 13.633-13.585 13.633-7.571 0-13.682-6.11-13.682-13.633 0-7.522 6.111-13.658 13.682-13.658z"/><path class="st26" d="M480.894 307.911c0 73.838-59.84 133.727-133.703 133.727-49.566 0-92.852-26.925-115.98-66.924h.025c26.268 29.677 64.66 48.398 107.41 48.398 72.45 0 132.437-53.779 141.98-123.6.17 2.776.268 5.575.268 8.4z"/></g><g id="XMLID_5_"><path class="st9" d="M691.694 317.097c7.499 0 13.61 6.086 13.61 13.657 0 7.523-6.111 13.634-13.61 13.634-7.595 0-13.681-6.111-13.681-13.634a13.626 13.626 0 0113.681-13.657zM611.77 281.334c0-15.094 12.221-27.34 27.242-27.34 15.094 0 27.315 12.246 27.315 27.34 0 15.045-12.221 27.242-27.315 27.242-15.02 0-27.242-12.197-27.242-27.242z"/><path class="st25" d="M735.418 308.625c0 43.14-34.983 78.147-78.147 78.147-43.164 0-78.1-35.008-78.1-78.147 0-43.115 34.936-78.075 78.1-78.075 43.164 0 78.147 34.96 78.147 78.075zm-30.115 22.13c0-7.572-6.11-13.658-13.609-13.658a13.626 13.626 0 00-13.681 13.657c0 7.523 6.086 13.634 13.681 13.634 7.499 0 13.61-6.111 13.61-13.634zm-66.29-76.76c-15.022 0-27.243 12.245-27.243 27.339 0 15.045 12.221 27.242 27.242 27.242 15.094 0 27.315-12.197 27.315-27.242 0-15.094-12.221-27.34-27.315-27.34z"/><path class="st26" d="M791.095 308.625c0 73.936-59.889 133.775-133.824 133.775-49.518 0-92.755-26.876-115.882-66.875l.024-.024c26.22 29.652 64.636 48.373 107.386 48.373 72.45 0 132.364-53.754 142.028-123.575.17 2.75.268 5.526.268 8.326z"/><path class="st9" d="M735.418 308.625c0-43.115-34.983-78.075-78.147-78.075-43.164 0-78.1 34.96-78.1 78.075 0 43.14 34.936 78.147 78.1 78.147 43.164 0 78.147-35.008 78.147-78.147zm-211.923 0c0-73.863 59.889-133.776 133.776-133.776 71.136 0 129.272 55.458 133.556 125.45-9.664 69.821-69.578 123.575-142.028 123.575-42.75 0-81.167-18.721-107.386-48.373l-.024.024c-11.37-19.671-17.894-42.506-17.894-66.9z"/></g><g id="XMLID_7_"><path d="M373.584 491.242h256.17c-5.243 43.883-32.482 81.024-70.39 100.006a26.98 26.98 0 00-2.284-2.85c-9.208-10.103-28.592-17.246-51.374-18.014l-4.037 4.22-4.038-4.22c-22.817.768-42.22 7.93-51.409 18.032a23.14 23.14 0 00-2.283 2.832c-37.91-19-65.149-56.123-70.355-100.006z" fill="#1e1f1d"/><path d="M446.222 588.416c.75.366 23.494 11.692 55.447 11.692 31.935 0 54.662-11.326 55.41-11.71a26.98 26.98 0 012.284 2.85c-17.356 8.714-36.959 13.61-57.694 13.61-20.754 0-40.356-4.896-57.73-13.61a23.14 23.14 0 012.283-2.832z" fill="#b01c1c"/><path d="M446.222 588.416c9.19-10.102 28.592-17.264 51.41-18.032l4.037 4.22 4.038-4.22c22.781.768 42.165 7.91 51.373 18.014-.75.384-23.477 11.71-55.411 11.71-31.953 0-54.698-11.326-55.447-11.692z" fill="#e52923"/></g></svg>