<svg version="1.1" id="monster" xmlns="http://www.w3.org/2000/svg" x="0" y="0" viewBox="0 0 1000 1000" xml:space="preserve"><style>.st5{fill:#1e1f1d}.st9{fill:#fff}.st36{fill:#c8c7c7}.st42{fill:#4081c2}.st49{fill:#125b95}.st50{fill:#eeeded}.st51{fill:#b1b1b0}</style><g id="XMLID_302_"><path class="st42" d="M692.72 61.17l-67.547 41.59 26.995 63.317h.02c-.289 3.922-1.461 6.614-3.539 7.46-5.73 2.327-16.151-9.883-23.303-27.284l-4.404-9.672-2.288-5.037-2.941-6.634-12.114-27.226 26.323-17.959 6.21-4.269 4.71-3.268 9.365-6.557 19.555-13.613 28.65-19.458 16.593 14.19 8.46 7.152 3.98 3.404 2.827 2.326 22.418 18.613 22.478 18.631 5.596 4.634 2.883 2.384 4.519 3.884 18.4 15.728-3.46 20.459-1.673 10.056-.942 6.21-3.768 24.881-3.75 24.88-1.866 12.441-3.576 20.94-11.633 10.767-2.903 2.691-1.634 1.539-3.23 3.095-12.902 12.325-25.823 24.688-51.645 49.339a300.294 300.294 0 01-17.344 16.613c-27.9 24.553-56.645 9.537-58.837-13.883l145.361-120.5 33.803-91.716-88.024-77.16z"/><path class="st49" d="M652.168 166.077l-26.995-63.317 67.547-41.59 88.024 77.161-33.803 91.716-145.36 120.5c-1-10.71 3.557-23.17 16.305-34.417 6.21-5.442 12.459-10.499 18.63-15.094l55.473-44.993 27.745-22.535 13.864-11.267 3.46-2.826 1.75-1.385c.193-.115.27-.173.423-.27l1.73-1.037.5-1.289.27-.634.134-.346.347-1.462 2.864-12.21 5.769-24.514 5.768-24.496 1.461-6.115c.135-.654.135-.577.193-.808l.173-.48.307-1 1.347-4.25-3.288-3.749-.885-1-2.519-2.46-5.191-5.097-20.9-20.361-20.843-20.363-2.615-2.576-.558-.558-.27-.308-.595-.595-2.385-2.538-5.018-5.346-9.921 5.23c-.52.288-2.577 1.5-4.154 2.404l-4.922 2.903-9.902 5.768-9.902 5.788-4.923 2.884-1.25.75-.73.384-1.461.789-12.248 6.71 4.018 12.056 1.077 3.173 1.711 4.768 3.634 9.98c4.519 11.036 6.634 21.535 6.134 28.322h-.02z"/></g><g id="XMLID_301_"><path class="st42" d="M158.742 107.778l-18.381 15.728 3.441 20.459 1.673 10.056.961 6.21 3.75 24.881 3.75 24.88 1.884 12.441 3.518 20.94 11.672 10.767 2.922 2.692 1.634 1.538 3.212 3.095 12.901 12.326 25.823 24.688 51.665 49.338a283.022 283.022 0 0017.363 16.613c27.9 24.553 56.664 9.537 58.817-13.883h-.019l-145.342-120.5-33.802-91.716 88.024-77.16 67.528 41.589-26.977 63.317h-.038c.288 3.942 1.461 6.614 3.557 7.46 5.749 2.327 16.132-9.883 23.304-27.284l4.384-9.672 2.307-5.037 2.96-6.634 12.115-27.226-26.362-17.959-6.191-4.269-4.71-3.268-9.384-6.557-19.554-13.613-28.65-19.458-16.574 14.19-8.48 7.152-3.98 3.404-2.807 2.326-22.439 18.613-22.42 18.631-5.633 4.634-2.903 2.384-4.519 3.884z"/><path class="st49" d="M300.873 137.754c-4.537 11.037-6.652 21.536-6.152 28.323h.038l26.977-63.317-67.528-41.59-88.024 77.161 33.802 91.716 145.342 120.5h.02c1-10.71-3.577-23.17-16.306-34.417-6.23-5.442-12.479-10.499-18.65-15.094l-55.473-44.993-27.726-22.535-13.883-11.267-3.46-2.826-1.75-1.385c-.173-.115-.27-.173-.404-.27l-1.711-1.037-.539-1.289-.269-.634-.115-.346-.327-1.462-2.904-12.21-5.767-24.514-5.77-24.496-1.441-6.115c-.135-.654-.135-.577-.211-.808l-.154-.48-.327-1-1.327-4.25 3.268-3.749.885-1 2.519-2.46 5.21-5.097 20.882-20.361 20.862-20.363 2.596-2.576.577-.558.269-.307.577-.596 2.403-2.538 5.018-5.345 9.903 5.229c.519.289 2.595 1.5 4.153 2.404l4.961 2.903 9.883 5.768 9.902 5.788 4.922 2.884 1.231.75.73.384 1.462.789 12.229 6.71-4 12.056-1.057 3.173-1.711 4.768-3.635 9.98z"/></g><g id="XMLID_259_"><path d="M499.52 967.439c-108.359 0-95.247-110.14-95.247-110.14S351.949 958.706 204.354 966.82C56.759 974.935-42.248 901.93 81.078 889.757c123.276-12.147 63.505-247.394 50.419-446.15 0 0-6.556-64.965 38.32-117.882.1-.149 58.336-97.523 267.557-108.384v.025s328.662-17.243 312.434 295.042C736.15 775.56 719.502 820.685 770.489 843.79c.026.025.026 0 .026 0 9.5 7.076 21.968 10.638 36.02 11.925h.025c55.193 5.12 134.706-24.665 154.423-14.596 31.765 16.18 18.678 126.319-151.33 126.319s-177.481-98.636-177.481-98.636-24.294 98.636-132.653 98.636z" fill="#66a0d7"/><path class="st42" d="M751.737 790.379c-2.053 26.892 5.468 43.566 18.752 53.413-50.987-23.107-34.338-68.232-20.681-331.384 16.228-312.285-312.434-295.042-312.434-295.042v-.025c12.37-.643 25.259-.99 38.692-.99 240.913 0 324.729 91.413 308.402 273.568-.297 114.593-28.154 240.888-32.73 300.46z"/></g><g id="XMLID_179_"><path class="st9" d="M230.489 673.53s-10.073-6.32 12.596-22.668c22.669-16.37 54.137-35.265 54.137-35.265s12.597-8.911 20.146 11.279c4.935 13.176 15.924 45.449 22.959 66.264-29.928 8.308-80.18 47.37-80.18 47.37h-.021l-29.637-66.98z"/><path class="st36" d="M340.327 693.14a4854.052 4854.052 0 016.365 18.872l.022.022c-35.533 17.242-61.797 33.702-78.972 45.673l-7.616-17.197h.022s50.251-39.062 80.179-47.37z"/><path class="st5" d="M452.331 670.27c66.331-20.994 148.788-38.19 247.86-43.395 0 0-245.56 20.547-442.008 179.676l-15.098-29.95s8.152-7.392 24.657-18.894c17.174-11.97 43.44-28.431 78.972-45.673a705.698 705.698 0 0132.92-14.963c21.62-9.202 45.83-18.314 72.697-26.801z"/><path class="st36" d="M379.634 697.07l-6.32-19.117s42.434-25.885 73.835-29.012c2.949 12.105 5.182 21.329 5.182 21.329-26.868 8.487-51.078 17.6-72.697 26.8z"/><path class="st9" d="M447.15 648.941c-31.402 3.127-73.835 29.012-73.835 29.012l-16.908-51.077s-8.241-16.304 11.614-23.875c19.877-7.55 45.047-16.371 45.047-16.371s16.37-5.025 20.167 7.549c2.346 7.817 9.09 35.109 13.914 54.762z"/></g><g id="XMLID_233_"><path class="st50" d="M275.596 419.053c0-95.268 77.285-172.553 172.6-172.553h.095l-.094 10.846c-77.708 0-140.766 63.011-140.766 140.72 0 46.342 22.444 87.52 57.048 113.157l-49.348 17.796c-24.697-29.816-39.535-68.177-39.535-109.966z"/><path class="st9" d="M448.197 300.308c41.413 0 75.031 33.619 75.031 75.079 0 41.46-33.618 75.078-75.031 75.078-41.507 0-75.078-33.618-75.078-75.078s33.57-75.079 75.078-75.079zm0 32.304c-18.5 0-33.384 14.978-33.384 33.384 0 18.453 14.884 33.384 33.384 33.384 18.359 0 33.337-14.931 33.337-33.384 0-18.406-14.978-33.384-33.337-33.384z"/><path class="st51" d="M531.774 511.223l49.301 17.796c-3.287 3.99-6.762 7.793-10.377 11.456v.047c-17.467-6.245-38.266-11.598-62.87-14.978a139.897 139.897 0 0023.946-14.32z"/><path class="st5" d="M523.229 375.387c0-41.46-33.62-75.079-75.032-75.079-41.507 0-75.078 33.619-75.078 75.079 0 41.46 33.57 75.078 75.078 75.078 41.413 0 75.032-33.618 75.032-75.078zM388.472 525.544c-8.498-3.944-16.527-8.78-23.993-14.32-34.605-25.638-57.048-66.816-57.048-113.159 0-77.708 63.058-140.72 140.766-140.72 77.66 0 140.625 63.012 140.625 140.72 0 46.343-22.443 87.521-57.048 113.158a139.897 139.897 0 01-23.946 14.32c-17.796-2.44-37.61-3.85-59.631-3.85s-41.882 1.41-59.725 3.85z"/><path class="st51" d="M325.602 540.522c-3.662-3.663-7.137-7.513-10.471-11.503l49.348-17.796c7.466 5.54 15.495 10.377 23.993 14.32-24.603 3.381-45.404 8.734-62.87 14.979z"/><path class="st5" d="M507.828 525.544c24.604 3.38 45.403 8.733 62.87 14.978 57.283 20.519 78.6 50.897 80.854 54.372-3.475-4.085-44.37-47.752-203.355-47.752-159.078 0-199.974 43.667-203.496 47.752 2.254-3.475 23.57-33.853 80.9-54.372 17.467-6.245 38.268-11.598 62.871-14.978 17.843-2.442 37.704-3.85 59.725-3.85s41.835 1.408 59.631 3.85z"/><path class="st50" d="M448.291 246.5c95.175.047 172.413 77.332 172.413 172.553 0 41.789-14.885 80.103-39.629 109.966l-49.3-17.796c34.604-25.637 57.047-66.815 57.047-113.158 0-77.708-62.965-140.72-140.625-140.72l.094-10.846z"/><path class="st5" d="M414.813 365.996c0-18.406 14.884-33.384 33.384-33.384 18.359 0 33.337 14.978 33.337 33.384 0 18.453-14.978 33.384-33.337 33.384-18.5 0-33.384-14.931-33.384-33.384z"/></g></svg>