<svg version="1.1" id="monster" xmlns="http://www.w3.org/2000/svg" x="0" y="0" viewBox="0 0 1000 1000" xml:space="preserve"><style>.st9{fill:#fff}.st42{fill:#4081c2}.st49{fill:#125b95}</style><g id="XMLID_57_"><path class="st42" d="M604.066 95.93l26.438-18.036 6.238-4.288 4.731-3.283 9.405-6.586 19.64-13.673 28.775-19.543 16.666 14.252 8.497 7.184 3.998 3.419 2.839 2.336 22.517 18.694 22.576 18.713 5.62 4.654 2.896 2.395 4.538 3.901 18.482 15.797-3.476 20.548-1.68 10.1-.947 6.238-3.785 24.99-3.765 24.99-1.874 12.494-3.592 21.03-11.683 10.815-2.916 2.703-1.642 1.545-3.244 3.11-12.958 12.379-25.937 24.796-51.871 49.554a301.487 301.487 0 01-17.42 16.686c-28.021 24.66-56.892 9.579-59.094-13.944l145.998-121.027 33.95-92.117-88.41-77.5-67.842 41.772 27.114 63.595h.019c-.29 3.94-1.468 6.643-3.553 7.493-5.755 2.336-16.222-9.927-23.406-27.404l-4.422-9.714-2.299-5.06-2.955-6.662-12.166-27.345z"/><path class="st49" d="M648.522 99.33l-12.302 6.74 4.036 12.108 1.082 3.186 1.719 4.79 3.65 10.023c4.538 11.085 6.662 21.629 6.16 28.446h-.02l-27.113-63.595 67.842-41.771 88.41 77.499-33.95 92.117L602.038 349.9c-1.004-10.755 3.573-23.27 16.377-34.567 6.237-5.466 12.514-10.545 18.713-15.16l55.714-45.19 27.867-22.633 13.924-11.317 3.476-2.839 1.758-1.39c.193-.117.27-.174.425-.27l1.738-1.044.502-1.294.27-.637.135-.347.348-1.468 2.878-12.264 5.793-24.622 5.793-24.603 1.468-6.142c.135-.656.135-.579.194-.81l.173-.484.31-1.004 1.351-4.267-3.302-3.766-.888-1.005-2.53-2.471-5.215-5.119-20.992-20.45-20.934-20.452-2.626-2.588-.56-.56-.27-.309-.6-.599-2.394-2.548-5.04-5.369-9.965 5.252c-.522.29-2.588 1.507-4.172 2.414l-4.943 2.916-9.946 5.794-9.946 5.813-4.943 2.897-1.256.753-.734.386-1.467.792z"/></g><g id="XMLID_55_"><path class="st42" d="M344.664 349.9L198.686 228.873l-33.95-92.117 88.409-77.5 67.824 41.772-27.095 63.595h-.039c.29 3.959 1.468 6.643 3.573 7.493 5.774 2.336 16.203-9.927 23.406-27.404l4.403-9.714 2.318-5.06 2.974-6.662 12.166-27.345L316.2 77.894l-6.219-4.289-4.731-3.282-9.424-6.586-19.64-13.673-28.775-19.543-16.647 14.252-8.517 7.184-3.998 3.419-2.819 2.336-22.537 18.694-22.518 18.713-5.658 4.654-2.916 2.395-4.538 3.901-18.462 15.797 3.456 20.548 1.68 10.1.966 6.238 3.766 24.99 3.766 24.99 1.892 12.494 3.534 21.03 11.723 10.815 2.935 2.703 1.642 1.545 3.225 3.11 12.958 12.379 25.936 24.796 51.89 49.554a284.221 284.221 0 0017.44 16.686c28.02 24.66 56.911 9.579 59.075-13.944h-.02z"/><path class="st49" d="M293.874 164.623l27.095-63.595-67.824-41.771-88.41 77.499 33.95 92.117L344.666 349.9h.019c1.003-10.755-3.593-23.27-16.377-34.567-6.257-5.466-12.534-10.545-18.732-15.16l-55.715-45.19-27.848-22.633-13.943-11.317-3.476-2.839-1.758-1.39c-.173-.117-.27-.174-.405-.27l-1.72-1.044-.54-1.294-.27-.637-.116-.347-.328-1.468-2.916-12.264-5.794-24.622-5.793-24.603-1.449-6.142c-.135-.656-.135-.579-.212-.81l-.155-.484-.328-1.004-1.332-4.267 3.282-3.766.889-1.005 2.53-2.471 5.233-5.119 20.973-20.45 20.953-20.452 2.607-2.588.58-.56.27-.309.58-.599 2.414-2.548 5.04-5.369 9.945 5.252c.522.29 2.607 1.507 4.172 2.414l4.982 2.916 9.926 5.794 9.946 5.813 4.944 2.897 1.236.753.734.386 1.468.792 12.282 6.74-4.017 12.109-1.062 3.186-1.719 4.79-3.65 10.023c-4.558 11.085-6.682 21.629-6.18 28.446h.039z"/></g><g id="XMLID_53_"><path class="st42" d="M475.962 215.095c241.966 0 326.15 91.811 309.75 274.765-.297 115.094-28.276 241.942-32.873 301.775-2.062 27.009 5.492 43.757 18.835 53.645-51.212-23.207-34.489-68.53-20.773-332.834 16.3-313.651-313.8-296.333-313.8-296.333v-.024a747.74 747.74 0 0138.86-.994z"/><path d="M203.06 968.848c-148.241 8.15-247.682-65.175-123.816-77.4 123.816-12.201 63.784-248.477 50.64-448.103 0 0-6.585-65.25 38.489-118.399.1-.15 58.59-97.95 268.727-108.857v.024s330.101-17.318 313.8 296.333c-13.715 264.305-30.438 309.627 20.774 332.834.025.026.025 0 .025 0 9.541 7.107 22.064 10.685 36.178 11.977h.024c55.435 5.143 135.296-24.773 155.1-14.66 31.904 16.25 18.76 126.873-151.994 126.873-170.753 0-178.256-99.069-178.256-99.069s-24.4 99.069-133.234 99.069c-108.832 0-95.663-110.622-95.663-110.622s-52.553 101.85-200.794 110z" fill="#66a0d7"/></g><g id="XMLID_51_"><path d="M495.006 485.55c0-23.408-18.99-42.4-42.4-42.4-23.374 0-42.365 18.992-42.365 42.4 0 23.409 18.991 42.366 42.365 42.366 23.41 0 42.4-18.957 42.4-42.365zm-42.4-62.609c64.14 0 116.14 52 116.14 116.07s-52 116.07-116.14 116.07c-64.105 0-116.035-52-116.035-116.07s51.93-116.07 116.035-116.07zm-60.07 98.367c-11.756 0-21.217 9.46-21.217 21.182 0 11.722 9.46 21.217 21.218 21.217 11.687 0 21.182-9.495 21.182-21.217 0-11.721-9.495-21.182-21.182-21.182z" fill="#1e1f1d"/><linearGradient id="SVGID_1_" gradientUnits="userSpaceOnUse" x1="273.058" y1="539.029" x2="632.189" y2="539.029"><stop offset="0" stop-color="#2273b7"/><stop offset=".6" stop-color="#3da4dd"/></linearGradient><path d="M452.606 422.941c-64.104 0-116.035 52-116.035 116.07s51.93 116.07 116.035 116.07c64.14 0 116.14-52 116.14-116.07s-52-116.07-116.14-116.07zm-179.548 116.07c0-99.165 80.382-179.548 179.548-179.548 99.2 0 179.584 80.383 179.584 179.549 0 99.13-80.383 179.583-179.584 179.583-99.166 0-179.548-80.452-179.548-179.583z" fill="url(#SVGID_1_)"/><path class="st9" d="M371.319 542.49c0-11.721 9.46-21.182 21.218-21.182 11.687 0 21.182 9.46 21.182 21.182 0 11.722-9.495 21.217-21.182 21.217-11.757 0-21.218-9.495-21.218-21.217zM452.606 443.15c23.41 0 42.4 18.992 42.4 42.4 0 23.409-18.99 42.366-42.4 42.366-23.374 0-42.365-18.957-42.365-42.365 0-23.41 18.991-42.4 42.365-42.4z"/><path class="st9" d="M632.19 539.012c0-99.166-80.383-179.55-179.584-179.55-99.166 0-179.548 80.384-179.548 179.55 0 99.13 80.382 179.583 179.548 179.583 99.2 0 179.583-80.452 179.583-179.583zM452.605 267.254c150.088 0 271.723 121.636 271.723 271.758S602.694 810.769 452.606 810.769c-150.087 0-271.688-121.635-271.688-271.757s121.6-271.758 271.688-271.758z"/></g></svg>