<svg version="1.1" id="monster" xmlns="http://www.w3.org/2000/svg" x="0" y="0" viewBox="0 0 1000 1000" xml:space="preserve"><style>.st5{fill:#1e1f1d}.st9{fill:#fff}</style><path d="M753.096 265.582l46.68-105.28c10.454-23.607-.293-34.353-23.88-23.899l-130.029 57.66a363.388 363.388 0 00-79.007-24.177L516.89 40.332c-9.297-24.07-24.496-24.07-33.774 0l-49.984 129.554A363.92 363.92 0 00355.15 193.6l-129.029-57.197c-23.593-10.454-34.345.292-23.89 23.9l46.087 103.92C178.158 330.84 134.415 424.98 134.415 529.34c0 13.491.748 26.777 2.164 39.884l43.066 408.498h139.436l34.888-113.15c44.722 19.535 94.101 30.37 146.034 30.37 51.919 0 101.316-10.86 146.065-30.37l34.83 113.073h139.454l42.972-407.67c1.46-13.351 2.261-26.867 2.261-40.635 0-103.648-43.163-197.217-112.49-263.758z" fill="#e62a3b"/><path d="M753.096 265.582s80.062 169.356 51.71 364.116c-16.423 112.807-38.295 251.334-53.794 347.946h69.34l42.972-407.67c1.46-13.325 2.261-26.867 2.261-40.61 0-103.673-43.163-197.242-112.49-263.783z" fill="#ca152c"/><g id="XMLID_3_"><path class="st9" d="M335.183 436.09a9.897 9.897 0 01-9.91-9.91 9.883 9.883 0 019.91-9.894c5.459 0 9.893 4.42 9.893 9.894s-4.434 9.91-9.893 9.91z"/><linearGradient id="SVGID_1_" gradientUnits="userSpaceOnUse" x1="279.38" y1="424.563" x2="447.113" y2="424.563"><stop offset="0" stop-color="#2273b7"/><stop offset=".6" stop-color="#3da4dd"/></linearGradient><path d="M447.113 424.555c0 46.3-37.543 83.875-83.875 83.875-46.315 0-83.858-37.575-83.858-83.875 0-46.315 37.543-83.859 83.858-83.859 46.332 0 83.875 37.544 83.875 83.86zm-83.875 54.211c29.957 0 54.244-24.287 54.244-54.21 0-29.925-24.287-54.212-54.244-54.212-29.94 0-54.194 24.287-54.194 54.211s24.254 54.211 54.194 54.211z" fill="url(#SVGID_1_)"/><path class="st5" d="M363.238 478.766c-29.94 0-54.194-24.287-54.194-54.21 0-29.925 24.254-54.212 54.194-54.212 29.957 0 54.244 24.287 54.244 54.211s-24.287 54.211-54.244 54.211zm-37.965-52.586a9.897 9.897 0 009.91 9.91c5.459 0 9.893-4.436 9.893-9.91 0-5.475-4.434-9.894-9.893-9.894a9.883 9.883 0 00-9.91 9.894zm37.965-6.807c10.934 0 19.804-8.854 19.804-19.787s-8.87-19.803-19.804-19.803c-10.917 0-19.786 8.87-19.786 19.803s8.87 19.787 19.786 19.787z"/><path class="st9" d="M363.238 508.43c46.332 0 83.875-37.575 83.875-83.875 0-46.315-37.543-83.859-83.875-83.859-46.315 0-83.858 37.544-83.858 83.86 0 46.298 37.543 83.874 83.858 83.874zm126.91-83.875c0 70.115-56.81 126.925-126.91 126.925-70.098 0-126.892-56.81-126.892-126.925S293.14 297.63 363.238 297.63c70.1 0 126.91 56.81 126.91 126.925z"/><path class="st9" d="M363.238 419.373c-10.917 0-19.786-8.854-19.786-19.787s8.87-19.803 19.786-19.803c10.934 0 19.804 8.87 19.804 19.803s-8.87 19.787-19.804 19.787z"/></g><g id="XMLID_4_"><linearGradient id="SVGID_2_" gradientUnits="userSpaceOnUse" x1="713.356" y1="426.189" x2="545.623" y2="426.189"><stop offset="0" stop-color="#2273b7"/><stop offset=".6" stop-color="#3da4dd"/></linearGradient><path d="M545.623 426.18c0 46.3 37.543 83.876 83.875 83.876 46.316 0 83.858-37.576 83.858-83.875 0-46.316-37.542-83.86-83.858-83.86-46.332 0-83.875 37.544-83.875 83.86zm83.875 54.212c-29.957 0-54.243-24.288-54.243-54.211 0-29.925 24.286-54.211 54.243-54.211 29.94 0 54.194 24.286 54.194 54.21s-24.254 54.212-54.194 54.212z" fill="url(#SVGID_2_)"/><path class="st9" d="M629.498 420.998c10.917 0 19.786-8.854 19.786-19.787s-8.869-19.803-19.786-19.803c-10.934 0-19.804 8.87-19.804 19.803s8.87 19.787 19.804 19.787z"/><path class="st9" d="M629.498 510.056c-46.332 0-83.875-37.576-83.875-83.875 0-46.316 37.543-83.86 83.875-83.86 46.316 0 83.858 37.544 83.858 83.86 0 46.299-37.543 83.875-83.858 83.875zm-126.91-83.875c0 70.114 56.81 126.925 126.91 126.925 70.099 0 126.893-56.81 126.893-126.925 0-70.116-56.794-126.926-126.893-126.926-70.1 0-126.91 56.81-126.91 126.926z"/><path class="st5" d="M575.255 426.18c0 29.924 24.286 54.212 54.243 54.212 29.94 0 54.194-24.288 54.194-54.211 0-29.925-24.253-54.211-54.194-54.211-29.957 0-54.243 24.286-54.243 54.21zm54.243-5.182c-10.934 0-19.804-8.854-19.804-19.787s8.87-19.803 19.804-19.803c10.917 0 19.786 8.87 19.786 19.803s-8.869 19.787-19.786 19.787zm28.056 16.717c-5.46 0-9.894-4.435-9.894-9.91 0-5.474 4.435-9.893 9.894-9.893a9.883 9.883 0 019.909 9.893 9.897 9.897 0 01-9.91 9.91z"/><path class="st9" d="M647.66 427.805c0 5.475 4.435 9.91 9.894 9.91a9.897 9.897 0 009.909-9.91 9.883 9.883 0 00-9.91-9.893c-5.458 0-9.893 4.419-9.893 9.893z"/></g><g><g id="XMLID_31_"><path d="M349.527 727.028c25.385 22.522 74.068 56.692 135.662 56.692 86.105 0 128.478-33.636 133.478-37.86l.048.05c-48.537 47.906-141.147 64.117-200.168 52.08-32.374-6.6-61.69-24.317-76.98-52.566 0 0 1.699-7.475 7.96-18.396z" fill="#c71b1b"/><path class="st5" d="M333.121 723.34c-11.697-48.586 4.951-81.737 34.559-104.016 69.311-52.13 267.101-86.639 282.39 38.053 2.961 24.269-1.747 45.334-11.891 63.342 0 0-17.425-91.784-148.04-72.564-90.133 13.251-126.633 54.557-140.612 78.873-6.261 10.921-7.96 18.396-7.96 18.396-3.64-6.746-6.552-14.124-8.446-22.084z"/><path d="M638.179 720.719c-5.146 9.222-11.746 17.57-19.464 25.19l-.048-.048c-5 4.223-47.373 37.86-133.478 37.86-61.594 0-110.277-34.171-135.662-56.693 13.979-24.317 50.479-65.622 140.613-78.873 130.614-19.22 148.039 72.564 148.039 72.564z" fill="#e52523"/></g></g></svg>