<svg version="1.1" id="monster" xmlns="http://www.w3.org/2000/svg" x="0" y="0" viewBox="0 0 1000 1000" xml:space="preserve"><style>.st9{fill:#fff}.st19{fill:#94c128}.st20{fill:#74922b}.st22{fill:#499834}.st25{fill:#063e51}.st26{fill:#b2b1b0}</style><g id="XMLID_313_"><path class="st19" d="M685.165 90.376l25.751 60.497h.019c-.276 3.727-1.395 6.278-3.377 7.085-5.452 2.24-15.418-9.416-22.228-26.045l-4.24-9.214-2.185-4.809-2.789-6.35-11.563-25.991 25.127-17.125 5.928-4.075 4.516-3.139 8.901-6.24 18.686-12.995 27.349-18.593 15.821 13.527 8.095 6.865 3.8 3.23 2.697 2.202 21.438 17.786 21.403 17.786 5.359 4.442 2.753 2.276 4.313 3.726 17.547 15.014-3.285 19.493-1.615 9.6-.881 5.946-3.598 23.751-3.597 23.751-1.8 11.839-3.359 20.025-11.122 10.26-2.754 2.607-1.578 1.431-3.065 2.974-12.353 11.765-24.632 23.568-49.3 47.116c-5.121 5.25-10.664 10.61-16.557 15.822-26.65 23.457-54.128 9.104-56.165-13.289l138.78-114.974 32.25-87.57-84.047-73.64-64.443 39.665z"/><path class="st20" d="M710.916 150.874l-25.751-60.497 64.443-39.665 84.046 73.64-32.249 87.569-138.78 114.974c-.954-10.205 3.396-22.1 15.547-32.818a307.822 307.822 0 0117.785-14.39L748.91 236.7l26.524-21.475 13.214-10.738 3.304-2.697 1.689-1.34c.147-.093.239-.184.385-.276l1.67-.973.442-1.211.274-.642.148-.35.256-1.357 2.772-11.692 5.507-23.385 5.524-23.401 1.377-5.82c.165-.623.165-.532.22-.752l.129-.458.293-.973 1.285-4.038-3.12-3.598-.862-.936-2.369-2.368-5.01-4.845-19.897-19.42-19.934-19.474-2.477-2.423-.55-.532-.222-.312-.605-.55-2.258-2.46-4.827-5.066-9.434 4.974c-.496.257-2.478 1.432-3.964 2.276l-4.681 2.79-9.453 5.47-9.452 5.543-4.736 2.753-1.193.698-.697.366-1.359.771-11.71 6.443 3.818 11.472 1.046 3.047 1.633 4.533 3.452 9.544c4.349 10.555 6.369 20.576 5.873 27.055h-.019z"/></g><g id="XMLID_312_"><path class="st20" d="M198.62 264.004l138.76 114.992h.019c.954-10.206-3.396-22.081-15.547-32.8-5.965-5.25-11.893-10.04-17.822-14.427l-52.971-42.986-26.468-21.494-13.216-10.72-3.321-2.697-1.69-1.34a2.368 2.368 0 00-.366-.275l-1.689-.973-.477-1.212-.22-.624-.147-.33-.294-1.413-2.753-11.656-5.506-23.402-5.489-23.384-1.413-5.836c-.147-.625-.147-.57-.202-.753l-.165-.459-.275-.973-1.322-4.038 3.157-3.579.844-.991 2.405-2.331 4.974-4.845 19.933-19.438 19.915-19.456 2.46-2.423.569-.533.238-.312.57-.587 2.257-2.423 4.809-5.065 9.452 4.974c.533.238 2.515 1.432 4.002 2.294l4.717 2.772 9.416 5.506 9.434 5.525 4.718 2.734 1.211.716.66.386 1.414.734 11.637 6.443-3.763 11.471-1.046 3.047-1.634 4.533-3.45 9.545c-4.332 10.536-6.37 20.539-5.874 27.018l25.788-60.46-64.461-39.683-84.046 73.658 32.267 87.57z"/><path class="st19" d="M337.38 378.996L198.62 264.004l-32.268-87.57 84.046-73.658 64.461 39.683-25.788 60.46c.276 3.763 1.395 6.314 3.396 7.14 5.47 2.24 15.4-9.453 22.227-26.045l4.204-9.233 2.22-4.808 2.79-6.351 11.546-25.99-25.128-17.125-5.928-4.075-4.461-3.139-8.994-6.277-18.667-12.958-27.311-18.594-15.822 13.51-8.113 6.882-3.781 3.23-2.698 2.24-21.402 17.75-21.438 17.785-5.378 4.442-2.753 2.294-4.313 3.708-17.566 15.014 3.286 19.493 1.615 9.599.954 5.965 3.543 23.733 3.56 23.75 1.8 11.876 3.376 20.007 11.123 10.26 2.79 2.551 1.58 1.469 3.046 2.973 12.334 11.784 24.687 23.53 49.264 47.099c5.103 5.323 10.646 10.61 16.593 15.822 26.633 23.475 54.091 9.122 56.147-13.234h-.018z"/></g><path d="M423.832 278.468s422.713-124.184 348.69 217.328C698.48 837.334 662.666 920.902 753.42 918.53c90.744-2.397 81.191 42.982-66.885 57.313-148.064 14.329-16.707-181.51-150.451-171.942-133.754 9.556-174.34 54.907-174.34 105.069 0 50.163-7.179 67.64-66.88 67.64-59.707 0-126.584-3.153-59.707-43.75 66.873-40.598 71.647-52.543 45.369-207.793-26.269-155.224-181.497-363.01 143.306-446.598z" fill="#59ae33"/><path class="st22" d="M735.85 600.964c-4.391 20.795-15.198 40.147-28.608 30.234-21.847-16.153 5.022-83.627 25.258-68.434 6.295 4.711 6.785 21.909 3.35 38.2zM751.94 526.181c-2.202 10.41-7.616 20.082-14.319 15.121-10.934-8.084 2.51-41.842 12.64-34.244 3.151 2.354 3.397 10.967 1.678 19.123zM703.754 543.64c-1.18 5.58-4.084 10.778-7.682 8.113-5.861-4.318 1.352-22.455 6.782-18.358 1.697 1.256 1.824 5.873.9 10.245zM682.777 585.344c-1.85 8.726-6.375 16.85-12.002 12.67-9.168-6.765 2.104-35.067 10.588-28.7 2.647 1.98 2.848 9.184 1.414 16.03zM686.574 617.161c-.744 3.498-2.558 6.746-4.808 5.085-3.68-2.716.847-14.074 4.242-11.51 1.072.8 1.136 3.683.566 6.425zM670.275 543.278c-.744 3.485-2.564 6.734-4.814 5.071-3.682-2.716.84-14.06 4.242-11.51 1.067.8 1.14 3.684.572 6.439zM764.063 486.386c-1.202 5.698-4.159 10.981-7.823 8.27-5.972-4.409 1.38-22.862 6.9-18.69 1.72 1.278 1.856 5.98.923 10.42zM727.356 497.302c-2.237 10.607-7.739 20.456-14.563 15.403-11.149-8.23 2.557-42.624 12.854-34.89 3.216 2.428 3.458 11.178 1.708 19.487zM723.275 660.55c-1.207 5.686-4.164 10.968-7.824 8.266-5.97-4.418 1.375-22.858 6.902-18.707 1.731 1.296 1.856 5.994.922 10.44z"/><g><g id="XMLID_157_"><path d="M365.718 744.595c6.752-5.094 13.48-9.945 20.007-14.525 148.972-103.906 248.833-78.669 286.968-61.525 11.473 5.199 17.36 9.608 17.36 9.608 28.89-77.809 31.322-109.422 26.513-141.636l-38.92 61.337-42.556-49.176-28.987 59.856-42.498-49.185-36.921 61.04-39.912-49.572L455.192 631l-39.912-49.571-28.918 59.905-39.911-49.57-18.345 58.266-47.26-48.474c8.863 59.374 40.573 109.567 84.822 143.107l.05-.068z" fill="#1e1f1d"/><path d="M672.693 668.545c-38.135-17.144-137.996-42.381-286.968 61.525 0 0 67.217 42.07 149.4 29.803 82.183-12.268 137.568-91.328 137.568-91.328z" fill="#e62a46"/><path d="M690.053 678.153s-5.887-4.41-17.36-9.608c0 0-55.385 79.06-137.568 91.328-82.183 12.267-149.4-29.803-149.4-29.803-6.527 4.58-13.255 9.431-20.007 14.525l-.05.068c45.66 34.53 104.547 51.401 165.566 42.293 60.139-8.977 110.992-41.508 144.55-86.84a217.721 217.721 0 0014.269-21.963z" fill="#cd163b"/></g></g><g><g id="XMLID_11_"><path class="st9" d="M334.698 441.748c0-13.81 11.141-24.906 24.929-24.906 13.743 0 24.884 11.096 24.884 24.906 0 13.766-11.14 24.93-24.884 24.93-13.788 0-24.93-11.164-24.93-24.93z"/><path class="st25" d="M376.306 395.36c39.384 0 71.362 31.956 71.362 71.407 0 39.383-31.979 71.317-71.362 71.317-39.429 0-71.408-31.934-71.408-71.317 0-39.451 31.979-71.407 71.408-71.407zm43.831 91.577c0-6.872-5.582-12.476-12.43-12.476-6.917 0-12.477 5.604-12.477 12.476 0 6.871 5.56 12.453 12.476 12.453 6.85 0 12.431-5.582 12.431-12.453zm-60.51-70.095c-13.788 0-24.93 11.096-24.93 24.906 0 13.766 11.142 24.93 24.93 24.93 13.743 0 24.884-11.164 24.884-24.93 0-13.81-11.14-24.906-24.884-24.906z"/><path class="st9" d="M447.668 466.767c0-39.451-31.979-71.407-71.362-71.407-39.429 0-71.408 31.956-71.408 71.407 0 39.383 31.979 71.317 71.408 71.317 39.384 0 71.362-31.934 71.362-71.317zm-71.362-122.244c64.89 0 117.95 50.614 121.887 114.571-8.717 63.78-63.49 112.904-129.67 112.904-39.073 0-74.143-17.102-98.138-44.21h-.022c-10.385-17.946-16.323-38.783-16.323-61.021 0-67.538 54.75-122.244 122.266-122.244z"/><path class="st26" d="M498.193 459.094c.156 2.535.245 5.093.245 7.673 0 67.448-54.662 122.154-122.132 122.154-45.278 0-84.795-24.595-105.943-61.133h.022c23.995 27.108 59.065 44.21 98.137 44.21 66.181 0 120.954-49.125 129.67-112.904z"/><path class="st9" d="M395.23 486.937c0-6.872 5.56-12.476 12.476-12.476 6.85 0 12.431 5.604 12.431 12.476 0 6.871-5.582 12.453-12.43 12.453-6.917 0-12.477-5.582-12.477-12.453z"/></g></g><g><g id="XMLID_10_"><path class="st25" d="M623.613 346.101c36.793 0 66.614 29.8 66.614 66.55 0 36.773-29.82 66.614-66.614 66.614-36.792 0-66.571-29.841-66.571-66.613 0-36.752 29.78-66.55 66.571-66.55zm7.7 43.288c0-12.866-10.417-23.304-23.263-23.304-12.804 0-23.242 10.438-23.242 23.304 0 12.825 10.438 23.221 23.242 23.221 12.846 0 23.263-10.396 23.263-23.22zm21.644 30.484a11.616 11.616 0 00-11.663 11.642c0 6.412 5.188 11.621 11.663 11.621 6.37 0 11.6-5.209 11.6-11.62 0-6.454-5.23-11.643-11.6-11.643z"/><path class="st26" d="M616.393 510.89c61.736 0 112.785-45.778 121.044-105.252.166 2.324.228 4.669.228 7.014 0 63.023-51.028 114.03-114.052 114.03-42.209 0-79.063-22.91-98.799-57.004l.042-.021c22.35 25.276 55.096 41.234 91.537 41.234z"/><path class="st9" d="M608.05 366.085c12.846 0 23.263 10.438 23.263 23.304 0 12.825-10.417 23.221-23.263 23.221-12.804 0-23.242-10.396-23.242-23.22 0-12.867 10.438-23.305 23.242-23.305zM641.294 431.515a11.616 11.616 0 0111.663-11.641c6.37 0 11.6 5.188 11.6 11.641 0 6.412-5.23 11.621-11.6 11.621-6.475 0-11.663-5.209-11.663-11.62z"/><path class="st9" d="M509.563 412.652c0-62.961 51.069-114.03 114.05-114.03 60.658 0 110.213 47.313 113.824 107.016-8.26 59.474-59.308 105.253-121.044 105.253-36.44 0-69.187-15.958-91.537-41.234l-.041.02c-9.691-16.767-15.253-36.253-15.253-57.025zm180.664 0c0-36.752-29.82-66.55-66.614-66.55-36.792 0-66.571 29.798-66.571 66.55 0 36.772 29.78 66.613 66.571 66.613 36.793 0 66.614-29.841 66.614-66.613z"/></g></g></svg>