<svg version="1.1" id="monster" xmlns="http://www.w3.org/2000/svg" x="0" y="0" viewBox="0 0 1000 1000" xml:space="preserve"><style>.st5{fill:#1e1f1d}.st9{fill:#fff}.st13{fill:#e6362c}.st15{fill:#e3ab28}</style><path d="M506.542 185.194s240.67-49.946 240.67 258.831v534.836h-90.826v-217.39s-68.11 27.658-149.844 27.658h-13.069c-81.734 0-149.854-27.658-149.854-27.658v217.39h-90.817V444.025c0-308.777 240.671-258.83 240.671-258.83h13.069z" fill="#d5418f"/><g id="XMLID_13_"><path class="st5" d="M657.144 574.47c0 42.08-16.542 80.292-43.488 108.495a131.631 131.631 0 00-9.313-12.853C579.647 639.874 542.08 620.57 500 620.57c-42.099 0-79.681 19.304-104.377 49.542a134.278 134.278 0 00-9.297 12.853c-26.93-28.203-43.471-66.414-43.471-108.496 0-10.9 1.092-21.57 3.226-31.809 37.185 35.085 92.334 57.3 153.918 57.3 61.535 0 116.684-22.215 153.902-57.3a157.182 157.182 0 013.243 31.81z"/><path d="M500 620.57c42.081 0 79.647 19.304 104.343 49.542-25.854 28.237-63.04 45.985-104.343 45.985-41.321 0-78.49-17.748-104.377-45.985C420.319 639.874 457.9 620.57 500 620.57z" fill="#e32d28"/><path d="M604.343 670.112a131.631 131.631 0 019.313 12.853c-28.6 29.973-68.962 48.648-113.656 48.648-44.712 0-85.057-18.675-113.674-48.648a134.278 134.278 0 019.297-12.853C421.51 698.35 458.679 716.097 500 716.097c41.303 0 78.489-17.748 104.343-45.985z" fill="#a3201b"/></g><g id="XMLID_12_"><path class="st9" d="M253.76 445.27c3.433 22.365 4.201 35.72 4.201 35.755-8.384-24.832-16.43-49.628-23.849-74.836-1.823-6.312-3.611-12.64-5.274-19.058-.804-3.254-1.662-6.204-2.377-10.137-.608-3.754-.84-7.741-.232-11.925.554-4.237 2.145-8.581 4.809-12.264 2.663-3.665 6.203-6.471 9.85-8.385 3.647-1.93 7.437-3.146 11.156-3.897 3.772-.787 7.42-1.162 11.299-1.108h98.06s-38.473 10.852-98.15 13.801h-.16c-7.67.34-16.699 2.95-20.238 8.01-1.699 2.288-2.575 5.255-2.664 8.76-.125 3.522.608 7.133 1.502 11.513l4.952 23.939c3.057 15.196 5.435 28.64 7.115 39.832z"/><path class="st5" d="M754.341 461.842c-.41.43-6.614 8.457-16 21.65-4.9 6.776-10.71 14.875-17.52 23.617-6.812 8.725-14.59 18.182-24.082 26.692-9.458 8.51-19.362 14.374-29.356 17.61-5.041 1.644-9.886 2.556-14.839 3.217a263.62 263.62 0 01-13.533 1.735 279.925 279.925 0 01-19.898 1.305l-7.401.179a139.194 139.194 0 0023.902 5.38c4.04.555 8.081.93 12.122 1.163 2.038.09 4.058.143 6.096.196l3.057.037c1.09 0 2.145-.054 3.236-.09 8.581-.375 17.198-2.45 25.083-6.007 7.848-3.486 14.946-8.385 21.185-13.909 12.497-11.245 21.704-24.886 29.32-38.974 7.598-14.16 13.587-28.872 18.628-43.8zm-496.38 19.183c0-.035-.768-13.39-4.2-35.755-1.681-11.192-4.059-24.636-7.116-39.832l-4.952-23.939c-.894-4.38-1.627-7.991-1.502-11.513.09-3.505.965-6.472 2.664-8.76 3.54-5.06 12.568-7.67 20.238-8.01h.16c59.677-2.95 98.15-13.801 98.15-13.801h-98.06c-3.88-.054-7.527.321-11.3 1.108-3.718.75-7.508 1.967-11.155 3.897-3.647 1.914-7.187 4.72-9.85 8.385-2.665 3.683-4.255 8.027-4.81 12.264-.607 4.184-.375 8.17.233 11.925.715 3.933 1.573 6.883 2.377 10.137 1.663 6.418 3.451 12.746 5.274 19.058 7.42 25.207 15.465 50.004 23.85 74.836zm262.967-94.127s3.217-19.093-20.918-19.093c-24.17 0-20.935 19.093-20.935 19.093v78.95c0 45.105-46.732 116.51-140.144 116.51S218.148 412.695 208.476 367.804c-9.672-44.874 37.043-48.52 37.043-48.52h508.947s46.716 3.646 37.061 48.52c-9.672 44.89-37.06 214.552-130.472 214.552s-140.127-71.404-140.127-116.51v-78.949z"/><path class="st9" d="M611.711 557.847l7.402-.179a279.925 279.925 0 0019.898-1.305c4.183-.43 8.689-.983 13.533-1.734 4.953-.662 9.798-1.574 14.84-3.218 9.993-3.236 19.897-9.1 29.355-17.61 9.493-8.51 17.27-17.967 24.081-26.691 6.812-8.743 12.622-16.842 17.52-23.617 9.386-13.194 15.59-21.221 16.001-21.65-5.041 14.928-11.03 29.641-18.629 43.8-7.615 14.088-16.823 27.73-29.319 38.974-6.24 5.524-13.337 10.423-21.186 13.909-7.884 3.558-16.501 5.632-25.082 6.007-1.09.036-2.146.09-3.236.09l-3.057-.037a341.817 341.817 0 01-6.097-.196c-4.04-.232-8.08-.608-12.12-1.162a139.206 139.206 0 01-23.904-5.381z"/></g><g id="XMLID_296_"><path d="M500.014 269.614c36.042-5.48 61.673-18.398 78.95-30.928 1.59 11.328 2.465 23.756 2.465 37.346v.02c-21.638 8.68-51.526 13.02-81.415 13.02V269.613z" fill="#e3c724"/><path d="M608.71 208.695s-8.68 14.71-29.746 29.991c-11.593-84.023-60.511-108.33-62.243-109.165 43.723 6.439 79.378 37.774 92.03 79.154l-.041.02z" fill="#a7c833"/><path class="st13" d="M491.294 81.642a8.717 8.717 0 018.72-8.72c2.425 0 4.584.978 6.153 2.547a8.77 8.77 0 012.547 6.173v46.983a111.723 111.723 0 00-8.7-.326c-2.934 0-5.847.102-8.72.326V81.642z"/><path d="M418.66 269.125a255.317 255.317 0 00-.102 6.907c-7.11-2.852-13.304-6.174-18.316-9.963a380.674 380.674 0 0018.418 3.056z" fill="#c72c28"/><path class="st15" d="M296.68 58.294c0-20.538 16.605-37.163 37.162-37.163 4.809 0 9.373.937 13.651 2.608L489.95 55.176c1.366-4.299 5.338-7.436 10.065-7.436 4.727 0 8.7 3.137 10.024 7.436L652.555 23.74a36.861 36.861 0 0113.61-2.608c20.537 0 37.183 16.625 37.183 37.163 0 20.537-16.646 37.162-37.183 37.162a36.86 36.86 0 01-13.61-2.608L510.038 61.39c-1.324 4.32-5.297 7.457-10.024 7.457-4.727 0-8.7-3.138-10.065-7.457L347.493 92.848c-4.278 1.67-8.842 2.608-13.65 2.608-20.558 0-37.163-16.625-37.163-37.163zM418.66 269.125c2.69-98.651 62.732-138.34 64.647-139.603a112.235 112.235 0 0116.707-1.223v141.315c-22.778 3.464-49.713 3.952-81.354-.489z"/><path d="M581.43 276.032c0-13.59-.877-26.018-2.466-37.346 21.067-15.28 29.746-29.99 29.746-29.99l.041-.021c3.24 10.533 4.971 21.719 4.971 33.312 0 14.893-12.795 26.242-32.293 34.065v-.02z" fill="#9dc42b"/><path d="M516.72 129.522c1.733.835 50.651 25.141 62.244 109.164-17.278 12.53-42.908 25.447-78.95 30.928V128.299c2.934 0 5.827.102 8.7.326 2.71.204 5.358.51 8.007.897z" fill="#fadf21"/><path class="st13" d="M386.326 241.987c0-57.11 42.113-104.398 96.981-112.466-1.915 1.264-61.957 40.953-64.647 139.604a380.674 380.674 0 01-18.418-3.056c-8.761-6.601-13.916-14.629-13.916-24.082z"/><path d="M418.558 276.032c0-2.343.041-4.645.102-6.907 31.641 4.441 58.576 3.953 81.354.489v19.457c-29.93 0-59.839-4.34-81.456-13.04z" fill="#ca9220"/></g></svg>