<svg width="82" height="42" fill="none" xmlns="http://www.w3.org/2000/svg"><path d="M27.667 41L14.472 14.472 14.334 41h13.333z" fill="#38ADA9" stroke="#fff" stroke-width="1.6"/><path fill-rule="evenodd" clip-rule="evenodd" d="M14.333 27.667A13.333 13.333 0 101 14.333V41h13.333V27.667z" fill="#1F658A"/><path d="M14.333 27.667v-.8h-.8v.8h.8zm7.408-2.247l.444.665-.444-.665zm4.91-5.984l.74.306-.74-.306zm.76-7.704l.784-.156-.785.156zM16.933 1.256l.157-.784-.157.784zm-7.703.759l.306.739-.306-.74zm-5.984 4.91l-.665-.444.665.445zM1 41H.2v.8H1V41zm13.333 0v.8h.8V41h-.8zm0-12.533c2.796 0 5.528-.83 7.852-2.382l-.888-1.33a12.533 12.533 0 01-6.964 2.112v1.6zm7.852-2.382a14.133 14.133 0 005.206-6.343l-1.478-.612a12.534 12.534 0 01-4.616 5.624l.888 1.33zm5.206-6.343a14.134 14.134 0 00.804-8.166l-1.57.312a12.533 12.533 0 01-.712 7.242l1.478.612zm.804-8.166a14.134 14.134 0 00-3.868-7.236l-1.131 1.13a12.533 12.533 0 013.43 6.418l1.57-.312zM24.327 4.34A14.133 14.133 0 0017.091.472l-.313 1.569a12.533 12.533 0 016.418 3.43l1.131-1.131zM17.091.472a14.133 14.133 0 00-8.166.804l.612 1.478a12.533 12.533 0 017.241-.713l.313-1.57zm-8.166.804A14.133 14.133 0 002.582 6.48l1.33.89a12.533 12.533 0 015.625-4.617l-.612-1.478zM2.582 6.48A14.133 14.133 0 00.2 14.333h1.6c0-2.479.735-4.902 2.112-6.963l-1.33-.889zM1.8 41V14.333H.2V41h1.6zm12.533-.8H1v1.6h13.333v-1.6zm-.8-12.533V41h1.6V27.667h-1.6z" fill="#fff"/><path d="M44.056 14.333a13.333 13.333 0 11-13.334 13.334h13.334V14.333z" fill="#1F658A" stroke="#fff" stroke-width="1.6"/><path d="M57.389 14.333a13.333 13.333 0 10-13.334 13.334V14.333H57.39z" fill="#38ADA9" stroke="#fff" stroke-width="1.6"/><circle cx="44.056" cy="14.333" r="1.667" fill="#fff"/><circle cx="44.056" cy="27.667" r="1.667" fill="#fff"/><path fill-rule="evenodd" clip-rule="evenodd" d="M15.133 15.796a1.666 1.666 0 10-1.6 0v11.87h1.6v-11.87z" fill="#fff"/><path fill-rule="evenodd" clip-rule="evenodd" d="M73.667 40.983A13.334 13.334 0 0161 27.667h20V41h-7.333v-.017z" fill="#38ADA9"/><path d="M73.667 40.983h.8v-.76l-.76-.039-.04.8zm-4.436-.998l-.306.74.306-.74zm-4.326-2.89l-.565.566.565-.566zm-2.89-4.326l-.74.306.74-.306zM61 27.667v-.8h-.8v.8h.8zm13.333 0h.8v-.8h-.8v.8zm0 0h-.8v.8h.8v-.8zm6.667 0h.8v-.8H81v.8zM81 41v.8h.8V41H81zm-7.333 0h-.8v.8h.8V41zm.04-.816a12.534 12.534 0 01-4.17-.938l-.612 1.478c1.496.62 3.087.978 4.702 1.058l.08-1.598zm-4.17-.938a12.532 12.532 0 01-4.066-2.717L64.34 37.66a14.132 14.132 0 004.585 3.064l.612-1.478zm-4.066-2.717a12.533 12.533 0 01-2.717-4.066l-1.478.612a14.133 14.133 0 003.064 4.585l1.13-1.13zm-2.717-4.066c-.63-1.52-.954-3.15-.954-4.796h-1.6c0 1.856.366 3.694 1.076 5.408l1.478-.612zM61 28.467h13.333v-1.6H61v1.6zm12.533-.8h1.6-1.6zm.8.8H81v-1.6h-6.667v1.6zm5.867-.8V41h1.6V27.667h-1.6zM81 40.2h-7.333v1.6H81v-1.6zm-6.533.8v-.017h-1.6V41h1.6z" fill="#fff"/><path fill="#1F658A" stroke="#fff" stroke-width="1.6" d="M61 1h13.333v26.667H61z"/><circle cx="74.333" cy="27.667" r="1.667" fill="#fff"/></svg>