<svg width="98" height="50" fill="none" xmlns="http://www.w3.org/2000/svg"><path d="M33 49L17.167 17.166 17 49h16z" fill="#38ADA9" stroke="#fff" stroke-width="1.6"/><path fill-rule="evenodd" clip-rule="evenodd" d="M17 33A16 16 0 101 17v32h16V33z" fill="#1F658A"/><path d="M17 33v-.8h-.8v.8h.8zm8.89-2.697l-.445-.665.444.665zm5.892-7.18l.74.306-.74-.306zm.91-9.245l.785-.155-.784.155zm-4.378-8.192l-.566.566.566-.566zM20.12 1.307l.157-.784-.157.784zm-9.244.91l.306.74-.306-.74zm-7.18 5.894l.665.444-.666-.444zM1 49H.2v.8H1V49zm16 0v.8h.8V49H17zm0-15.2a16.8 16.8 0 009.334-2.831l-.89-1.33A15.2 15.2 0 0117 32.2v1.6zm9.334-2.831a16.8 16.8 0 006.187-7.54l-1.478-.612a15.2 15.2 0 01-5.598 6.821l.889 1.33zm6.187-7.54a16.8 16.8 0 00.956-9.706l-1.57.312a15.2 15.2 0 01-.864 8.782l1.478.612zm.956-9.706A16.8 16.8 0 0028.88 5.12l-1.131 1.131a15.2 15.2 0 014.16 7.783l1.57-.313zM28.88 5.12A16.8 16.8 0 0020.277.523l-.312 1.57a15.2 15.2 0 017.783 4.159l1.131-1.131zM20.277.523a16.8 16.8 0 00-9.706.956l.612 1.478a15.2 15.2 0 018.782-.865l.313-1.57zm-9.706.956a16.8 16.8 0 00-7.54 6.187l1.33.89a15.2 15.2 0 016.822-5.599l-.612-1.478zM3.03 7.666A16.8 16.8 0 00.2 17h1.6a15.2 15.2 0 012.562-8.445l-1.33-.889zM1.8 49V17H.2v32h1.6zm15.2-.8H1v1.6h16v-1.6zM16.2 33v16h1.6V33h-1.6z" fill="#fff"/><path d="M52.666 17a16 16 0 11-16 16h16V17z" fill="#1F658A" stroke="#fff" stroke-width="1.6"/><path d="M68.666 17a16 16 0 10-16 16V17h16z" fill="#38ADA9" stroke="#fff" stroke-width="1.6"/><circle cx="52.667" cy="17" r="2" fill="#fff"/><circle cx="52.667" cy="33" r="2" fill="#fff"/><path fill-rule="evenodd" clip-rule="evenodd" d="M17.8 18.834a2 2 0 10-1.6 0V33h1.6V18.834z" fill="#fff"/><path fill-rule="evenodd" clip-rule="evenodd" d="M88.2 48.98A16.001 16.001 0 0173 33h24v16h-8.8v-.02z" fill="#38ADA9"/><path d="M88.2 48.98h.8v-.761l-.76-.038-.04.799zm-5.323-1.198l.306-.739-.306.74zm-5.19-3.468l.565-.566-.566.566zm-3.47-5.191l.74-.306-.74.306zM73 33v-.8h-.8v.8h.8zm16 0h.8v-.8H89v.8zm0 0h-.8v.8h.8V33zm8 0h.8v-.8H97v.8zm0 16v.8h.8V49H97zm-8.8 0h-.8v.8h.8V49zm.04-.819a15.204 15.204 0 01-5.057-1.138l-.612 1.478c1.78.737 3.67 1.162 5.589 1.258l.08-1.598zm-5.057-1.138a15.2 15.2 0 01-4.931-3.295l-1.131 1.131a16.8 16.8 0 005.45 3.642l.612-1.478zm-4.931-3.295a15.2 15.2 0 01-3.295-4.931l-1.478.612a16.801 16.801 0 003.642 5.45l1.131-1.131zm-3.295-4.931A15.202 15.202 0 0173.8 33h-1.6a16.8 16.8 0 001.279 6.43l1.478-.613zM73 33.8h16v-1.6H73v1.6zm15.2-.8h1.6-1.6zm.8.8h8v-1.6h-8v1.6zm7.2-.8v16h1.6V33h-1.6zm.8 15.2h-8.8v1.6H97v-1.6zm-8 .8v-.02h-1.6V49H89z" fill="#fff"/><path fill="#1F658A" stroke="#fff" stroke-width="1.6" d="M73 1h16v32H73z"/><circle cx="89" cy="33" r="2" fill="#fff"/></svg>